<svg width="56" height="57" viewBox="0 0 56 57" fill="none" xmlns="http://www.w3.org/2000/svg">
<path fill-rule="evenodd" clip-rule="evenodd" d="M9.85483 49.1534L8.33583 8.7039C8.288 7.36807 9.31467 6.23757 10.6482 6.1559L37.6075 4.47007L39.6667 5.16657L42.3442 4.17373L45.0462 4.00457C46.403 3.91823 47.5732 4.9484 47.6607 6.30523C47.6642 6.35773 47.6653 6.4114 47.6653 6.46507V50.5382C47.6642 51.8997 46.5593 53.0022 45.1978 53.0011C45.1617 53.0011 45.1255 52.9999 45.0905 52.9987L12.2068 51.5217C10.9258 51.4646 9.90383 50.4356 9.85483 49.1534Z" fill="black"/>
<path fill-rule="evenodd" clip-rule="evenodd" d="M42.3419 4.17383L37.6088 4.46783L37.3789 10.0223C37.3708 10.2253 37.5283 10.3957 37.7313 10.405C37.8164 10.4085 37.8993 10.3828 37.9669 10.3315L40.1229 8.69466L41.9453 10.1308C42.1039 10.2568 42.3361 10.23 42.4609 10.0713C42.5146 10.0025 42.5426 9.91733 42.5403 9.82983L42.3443 4.17499L42.3419 4.17383ZM38.6576 22.7693C37.7931 23.4425 31.3344 23.901 31.3344 22.9432C31.4721 19.2857 29.8353 19.1258 28.9241 19.1258C28.0619 19.1258 26.6059 19.386 26.6059 21.346C26.6059 23.3422 28.7328 24.4692 31.2294 25.7922C34.7749 27.6717 39.0694 29.9478 39.0694 35.6703C39.0694 41.1583 34.6104 44.187 28.9264 44.187C23.0593 44.187 17.9306 41.8128 18.5093 33.5832C18.7368 32.6183 26.1976 32.8482 26.1976 33.5832C26.1043 36.9793 26.8789 37.978 28.8343 37.978C30.3358 37.978 31.0171 37.1497 31.0171 35.7578C31.0171 33.6485 28.8028 32.4037 26.2524 30.9733C22.8003 29.0355 18.7379 26.7547 18.7379 21.5187C18.7379 16.2955 22.3301 12.8118 28.7433 12.8118C35.1564 12.8118 38.6576 16.243 38.6576 22.7693Z" fill="white"/>
</svg>
