<svg width="57" height="56" viewBox="0 0 57 56" fill="none" xmlns="http://www.w3.org/2000/svg">
<path d="M47.0116 30.282C45.2172 30.2913 43.6632 30.7218 42.3612 31.3646C41.8852 30.4138 41.4022 29.5773 41.3217 28.9555C41.2272 28.2298 41.1176 27.7958 41.2319 26.9313C41.3462 26.0668 41.8467 24.8418 41.8397 24.7496C41.8327 24.6575 41.7277 24.2176 40.6929 24.2095C39.6581 24.2025 38.7726 24.409 38.6687 24.682C38.5649 24.955 38.3654 25.5698 38.2417 26.2115C38.0609 27.1495 36.1756 30.4966 35.1057 32.2466C34.7557 31.563 34.4582 30.961 34.3964 30.485C34.3019 29.7593 34.1922 29.3253 34.3066 28.4608C34.4209 27.5963 34.9214 26.3713 34.9144 26.2791C34.9074 26.187 34.8024 25.7471 33.7676 25.739C32.7327 25.732 31.8472 25.9385 31.7434 26.2115C31.6396 26.4845 31.5276 27.1226 31.3164 27.741C31.1041 28.3581 28.5992 33.9406 27.9424 35.3885C27.6076 36.1258 27.3171 36.7185 27.1117 37.1221L27.1106 37.1198C27.1106 37.1198 27.0977 37.1466 27.0767 37.1921C26.9006 37.5363 26.7967 37.7265 26.7967 37.7265C26.7967 37.7265 26.7979 37.7288 26.8002 37.7335C26.6602 37.9866 26.5109 38.2211 26.4374 38.2211C26.3861 38.2211 26.2822 37.548 26.4596 36.624C26.8329 34.6873 27.7277 31.668 27.7196 31.563C27.7149 31.5093 27.8864 30.9831 27.1351 30.7078C26.4047 30.4406 26.1446 30.8863 26.0781 30.8875C26.0139 30.8886 25.9661 31.045 25.9661 31.045C25.9661 31.045 26.7792 27.6488 24.4144 27.6488C22.9351 27.6488 20.8864 29.267 19.8772 30.7335C19.2402 31.0811 17.8764 31.8255 16.4309 32.62C15.8756 32.9256 15.3086 33.2371 14.7707 33.5335C14.7346 33.4926 14.6972 33.453 14.6599 33.4121C11.7911 30.352 6.48974 28.1878 6.71374 24.073C6.79541 22.5773 7.31574 18.6386 16.9022 13.8623C24.7551 9.94931 31.0422 11.0261 32.1284 13.412C33.6801 16.8221 28.7684 23.1583 20.6134 24.073C17.5066 24.4218 15.8697 23.2166 15.4626 22.7686C15.0344 22.2961 14.9702 22.2751 14.8104 22.3638C14.5502 22.5085 14.7147 22.925 14.8104 23.1735C15.0542 23.807 16.0529 24.9305 17.7562 25.4905C19.2554 25.9828 22.9036 26.2523 27.3147 24.5455C32.2567 22.6345 36.1149 17.3168 34.9809 12.873C33.8282 8.35331 26.3336 6.86698 19.2402 9.38698C15.0134 10.8873 10.4436 13.2416 7.15707 16.3146C3.2499 19.9686 2.62691 23.1501 2.88357 24.479C3.79591 29.2016 10.3047 32.277 12.9111 34.5555C12.7827 34.6266 12.6614 34.6931 12.5517 34.7538C11.2451 35.4001 6.28324 37.9971 5.0419 40.74C3.63374 43.8515 5.26591 46.0845 6.34624 46.3855C9.6934 47.3165 13.1281 45.6411 14.9749 42.8878C16.8206 40.1356 16.5954 36.5505 15.7484 34.9148C15.7379 34.895 15.7262 34.8751 15.7157 34.8541C16.0529 34.6546 16.3971 34.4516 16.7377 34.251C17.4027 33.8601 18.0561 33.4961 18.6219 33.1881C18.3046 34.0561 18.0724 35.098 17.9522 36.6018C17.8099 38.3681 18.5344 40.6513 19.4817 41.5496C19.8994 41.9451 20.4011 41.9545 20.7184 41.9545C21.8209 41.9545 22.3237 41.0375 22.8779 39.9525C23.5569 38.6225 24.1601 37.0731 24.1601 37.0731C24.1601 37.0731 23.4041 41.2568 25.4644 41.2568C26.2157 41.2568 26.9706 40.2826 27.3077 39.7868C27.3089 39.7926 27.3089 39.795 27.3089 39.795C27.3089 39.795 27.3287 39.7623 27.3672 39.6981C27.4454 39.5791 27.4897 39.5033 27.4897 39.5033C27.4897 39.5033 27.4909 39.4951 27.4932 39.4811C27.7954 38.9573 28.4651 37.7626 29.4684 35.7921C30.7657 33.2465 32.0094 30.0568 32.0094 30.0568C32.0094 30.0568 32.1249 30.8361 32.5041 32.1265C32.7269 32.8848 33.2006 33.7236 33.5751 34.5286C33.2741 34.9463 33.0897 35.1855 33.0897 35.1855C33.0897 35.1855 33.0909 35.1901 33.0944 35.1983C32.8541 35.518 32.5846 35.8621 32.3022 36.1981C31.2779 37.4173 30.0587 38.8103 29.8954 39.2116C29.7029 39.6853 29.7484 40.033 30.1206 40.3141C30.3924 40.5183 30.8754 40.551 31.3806 40.5171C32.3011 40.4553 32.9474 40.2266 33.2671 40.0878C33.7652 39.9116 34.3451 39.6351 34.8887 39.235C35.8932 38.4965 36.4987 37.4406 36.4404 36.0406C36.4077 35.2695 36.1627 34.5053 35.8512 33.7843C35.9422 33.6536 36.0332 33.5206 36.1254 33.3876C37.7086 31.073 38.9371 28.5296 38.9371 28.5296C38.9371 28.5296 39.0526 29.309 39.4317 30.5993C39.6231 31.2515 40.0022 31.9643 40.3429 32.662C38.8542 33.8718 37.9314 35.2776 37.6106 36.1993C37.0179 37.905 37.4822 38.6773 38.3526 38.8535C38.7469 38.9328 39.3046 38.752 39.7234 38.5746C40.2449 38.402 40.8714 38.1138 41.4571 37.6833C42.4616 36.9448 43.4276 35.9111 43.3692 34.5123C43.3424 33.8753 43.1697 33.243 42.9352 32.6363C44.1976 32.1101 45.8309 31.8185 47.9122 32.0611C52.3771 32.5826 53.2521 35.3698 53.0852 36.5365C52.9172 37.7031 51.9816 38.3448 51.6677 38.5385C51.3551 38.7321 51.2594 38.7998 51.2851 38.9433C51.3236 39.1521 51.4682 39.1451 51.7354 39.0996C52.1029 39.0378 54.0792 38.1511 54.1644 35.9975C54.2706 33.2605 51.6514 30.2575 47.0116 30.282ZM12.5984 41.8833C11.1191 43.4968 9.05407 44.1058 8.1674 43.5925C7.21074 43.0383 7.5899 40.663 9.40407 38.9503C10.5101 37.9073 11.9381 36.946 12.8854 36.3545C13.1012 36.225 13.4174 36.0348 13.8024 35.8038C13.8666 35.7676 13.9027 35.7478 13.9027 35.7478L13.9016 35.7455C13.9762 35.7011 14.0521 35.6556 14.1302 35.6078C14.7917 38.045 14.1512 40.1905 12.5984 41.8833ZM23.3726 34.5601C22.8581 35.8155 21.7801 39.0285 21.1232 38.8558C20.5597 38.7076 20.2167 36.2658 21.0112 33.8625C21.4102 32.6526 22.2642 31.2071 22.7659 30.646C23.5732 29.743 24.4622 29.4478 24.6781 29.8141C24.9522 30.2808 23.6957 33.7726 23.3726 34.5601ZM32.2731 38.8068C32.0549 38.9211 31.8542 38.9923 31.7621 38.9375C31.6932 38.8966 31.8519 38.7461 31.8519 38.7461C31.8519 38.7461 32.9649 37.548 33.4036 37.0031C33.6591 36.6858 33.9542 36.309 34.2762 35.889C34.2786 35.931 34.2797 35.973 34.2797 36.0138C34.2774 37.4488 32.8914 38.4171 32.2731 38.8068ZM39.1296 37.2435C38.9662 37.128 38.9942 36.7535 39.5297 35.5856C39.7397 35.1271 40.2204 34.356 41.0534 33.6186C41.1502 33.922 41.2086 34.2125 41.2074 34.4831C41.1969 36.2891 39.9089 36.9635 39.1296 37.2435Z" fill="black"/>
</svg>
