<svg width="57" height="57" viewBox="0 0 57 57" fill="none" xmlns="http://www.w3.org/2000/svg">
<path d="M0.5 56.5V0.5H56.5V56.5H0.5Z" fill="white"/>
<path d="M37.1147 42.4176C38.1911 44.166 39.3609 45.8414 41.8389 45.8414C43.9202 45.8414 45.0122 44.8069 45.0122 43.3758C45.0122 41.6631 43.8829 41.0549 41.5931 40.0578L40.3378 39.5227C36.7149 37.9858 34.3053 36.06 34.3053 31.9923C34.3053 28.2434 37.1753 25.3905 41.66 25.3905C44.8536 25.3905 47.148 26.4965 48.8031 29.3929L44.8925 31.8927C44.0322 30.3558 43.102 29.7507 41.66 29.7507C40.1885 29.7507 39.2567 30.6794 39.2567 31.8927C39.2567 33.3922 40.19 33.9989 42.3445 34.9276L43.5998 35.4627C47.8698 37.2811 50.2778 39.1385 50.2778 43.3136C50.2778 47.8122 46.7249 50.2778 41.9556 50.2778C37.2905 50.2778 34.6413 47.9367 33.1667 45.0387L37.1147 42.4176ZM19.092 42.5451C19.8791 43.9545 21.0753 45.0387 22.7958 45.0387C24.4416 45.0387 25.3889 44.3885 25.3889 41.8607V25.3889H30.5736V42.6571C30.5736 47.8947 27.5356 50.2778 23.0991 50.2778C19.0905 50.2778 16.1971 47.5618 15.018 45.0387L19.092 42.5451Z" fill="black"/>
</svg>
