<svg width="57" height="57" viewBox="0 0 57 57" fill="none" xmlns="http://www.w3.org/2000/svg">
<g clip-path="url(#clip0_205_721)">
<path fill-rule="evenodd" clip-rule="evenodd" d="M32.7046 1.42896C32.3217 1.42896 31.9661 1.51391 31.6378 1.62717C32.3353 2.10855 32.7183 2.74568 32.9098 3.46776C32.9235 3.56687 32.9508 3.63766 32.9645 3.73676C32.9782 3.82172 32.9918 3.90667 32.9918 3.99162C33.0466 5.23755 32.6773 5.39329 32.4174 6.12953C32.0208 7.07814 32.1302 8.09754 32.6089 8.91872C32.6499 9.01783 32.7046 9.1311 32.773 9.23021C32.2533 5.64814 35.1391 5.11013 35.6725 3.99162C35.7135 3.01469 34.934 2.36341 34.3185 1.91034C33.7304 1.54222 33.197 1.42896 32.7046 1.42896ZM37.0539 2.23598C36.9992 2.56162 37.0402 2.47667 37.0266 2.64657C37.0129 2.75984 37.0129 2.90143 36.9992 3.01469C36.9719 3.12796 36.9445 3.24122 36.9035 3.35449C36.8761 3.46776 36.8351 3.58103 36.7941 3.69429C36.7393 3.80756 36.6983 3.90667 36.6436 4.01993C36.6026 4.07659 36.5752 4.1332 36.5342 4.18983C36.5069 4.23231 36.4795 4.27478 36.4521 4.31726C36.3838 4.41637 36.3154 4.51548 36.247 4.60042C36.1649 4.68538 36.0965 4.78448 36.0008 4.85528V4.86945C35.9187 4.94025 35.8367 5.0252 35.7409 5.09599C35.4537 5.32252 35.1255 5.49242 34.8246 5.7048C34.7288 5.77559 34.6331 5.83222 34.551 5.91717C34.4553 5.98796 34.3732 6.05875 34.2912 6.1437C34.1954 6.22865 34.1271 6.31361 34.045 6.41272C33.9766 6.49767 33.8946 6.59677 33.8398 6.69588C33.7715 6.79499 33.7031 6.8941 33.6484 6.99321C33.5936 7.10647 33.5526 7.20558 33.4979 7.31885C33.4569 7.43211 33.4159 7.53122 33.3885 7.64449C33.3475 7.77191 33.3201 7.88518 33.2928 7.99845C33.2791 8.05511 33.2791 8.12587 33.2654 8.18251C33.2517 8.23916 33.2517 8.29577 33.2381 8.35241C33.2381 8.46567 33.2244 8.5931 33.2244 8.70636C33.2244 8.79132 33.2244 8.87627 33.2381 8.96122C33.2381 9.07448 33.2518 9.18775 33.2791 9.31517C33.2928 9.42844 33.3202 9.54171 33.3475 9.65498C33.3885 9.76824 33.4159 9.88151 33.4569 9.99477C33.4843 10.0656 33.5253 10.1364 33.5527 10.193L30.407 8.9329C29.8736 8.77716 29.3538 8.63558 28.8204 8.50815C28.5332 8.43736 28.246 8.36657 27.9588 8.29577C27.1382 8.12587 26.3039 7.99845 25.4696 7.9135C25.4423 7.9135 25.4286 7.89932 25.4012 7.89932C24.5806 7.81437 23.7736 7.7719 22.953 7.7719C22.3512 7.7719 21.7494 7.80019 21.1613 7.84269C20.327 7.89935 19.4927 8.01259 18.6585 8.15417C18.4533 8.18247 18.2481 8.22497 18.043 8.26744C17.619 8.35239 17.2087 8.4515 16.8121 8.55061C16.6069 8.60726 16.4018 8.66388 16.1966 8.72051C15.9914 8.80545 15.8 8.90457 15.6085 8.98952C15.458 9.06031 15.3076 9.1311 15.1572 9.20189C15.1298 9.21607 15.1024 9.21607 15.0888 9.23019C14.952 9.30098 14.8289 9.35761 14.7058 9.4284C14.6648 9.44258 14.6374 9.4567 14.6101 9.47088C14.4596 9.54167 14.3092 9.62662 14.1861 9.69741C14.0903 9.73989 13.9946 9.79652 13.9125 9.839C13.8715 9.86729 13.8168 9.89565 13.7895 9.90979C13.6664 9.98058 13.5433 10.0514 13.4339 10.1222C13.3108 10.193 13.2013 10.2637 13.1056 10.3345C13.0099 10.4053 12.9141 10.462 12.8321 10.5327C12.8184 10.5469 12.8047 10.5469 12.791 10.561C12.709 10.6177 12.6132 10.6885 12.5312 10.7593C12.5312 10.7593 12.5175 10.7734 12.5038 10.7876C12.4355 10.8442 12.3671 10.9008 12.2987 10.9575C12.2714 10.9716 12.244 10.9999 12.2166 11.0141C12.1482 11.0708 12.0799 11.1415 12.0115 11.1982C11.9978 11.2265 11.9704 11.2407 11.9567 11.2548C11.8747 11.3398 11.7926 11.4106 11.7106 11.4955C11.6969 11.4955 11.6969 11.5097 11.6832 11.5238C11.6012 11.5946 11.5191 11.6796 11.437 11.7645C11.4233 11.7787 11.4233 11.7928 11.4097 11.7928C11.3413 11.8636 11.2729 11.9344 11.2045 12.0193C11.1772 12.0476 11.1362 12.076 11.1088 12.1043C11.0404 12.1892 10.9584 12.2742 10.8763 12.3591C10.8626 12.3874 10.8353 12.4016 10.8216 12.4299C10.7122 12.5432 10.6164 12.6565 10.507 12.7697C10.4933 12.7839 10.4797 12.798 10.466 12.8122C10.2471 13.0529 10.0146 13.2936 9.76845 13.506C9.52226 13.7325 9.2624 13.9449 9.00254 14.1289C8.729 14.3272 8.46914 14.497 8.18192 14.6669C7.90838 14.8227 7.62116 14.9643 7.32027 15.0917C7.03305 15.2191 6.73216 15.3324 6.43127 15.4315C5.85684 15.5589 5.26873 15.7996 4.76268 15.8421C4.65326 15.8421 4.53017 15.8704 4.42076 15.8846C4.29766 15.9129 4.18825 15.9412 4.07883 15.9695C3.96942 16.012 3.86 16.0545 3.75058 16.0969C3.64117 16.1394 3.53176 16.196 3.42234 16.2527C3.3266 16.3235 3.21719 16.3801 3.12144 16.4509C3.02571 16.5217 2.92997 16.6066 2.8479 16.6916C2.75217 16.7624 2.65643 16.8615 2.57436 16.9464C2.4923 17.0456 2.41024 17.1305 2.34186 17.2296C2.27347 17.3429 2.19141 17.442 2.1367 17.5553C2.06832 17.6544 1.99993 17.7676 1.94522 17.8809C1.89049 18.0083 1.83581 18.1216 1.79478 18.249C1.75375 18.3623 1.71272 18.4897 1.67169 18.6171C1.64435 18.7304 1.61696 18.8437 1.6033 18.9569C1.6033 18.9711 1.5896 18.9852 1.5896 18.9994C1.56227 19.1268 1.56227 19.2967 1.54857 19.3817C1.53487 19.4808 1.52124 19.5657 1.52124 19.6648C1.52124 19.7215 1.52124 19.7923 1.53494 19.8489C1.54864 19.948 1.56227 20.033 1.58967 20.1179C1.617 20.2029 1.6444 20.2878 1.6854 20.3728V20.3869C1.72643 20.4719 1.78114 20.5568 1.83585 20.6418C1.89058 20.7267 1.94527 20.8117 2.01365 20.8967C2.08204 20.9674 2.1641 21.0524 2.24616 21.1232C2.32822 21.2081 2.41029 21.2789 2.50602 21.3497C2.83427 21.647 2.91633 21.7461 3.34032 21.9727C3.4087 22.0152 3.47709 22.0435 3.55915 22.0859C3.57285 22.0859 3.58649 22.1001 3.60018 22.1001C3.60018 22.1284 3.60018 22.1426 3.61388 22.1709C3.62758 22.2842 3.65491 22.3975 3.68227 22.5107C3.7096 22.6381 3.75066 22.7514 3.79169 22.8505C3.83272 22.9355 3.86007 23.0204 3.9011 23.1054C3.9148 23.1337 3.92844 23.162 3.94213 23.1762C3.99686 23.2894 4.05155 23.3885 4.10625 23.4876C4.17464 23.5868 4.24302 23.6859 4.31141 23.785C4.37979 23.8699 4.46185 23.969 4.54392 24.054C4.62598 24.1389 4.70804 24.2097 4.80378 24.2947C4.80378 24.2947 4.81748 24.3089 4.83111 24.3089C4.91318 24.3797 4.99524 24.4505 5.0773 24.5071C5.17304 24.5779 5.26878 24.6345 5.37819 24.6911C5.47393 24.7478 5.58335 24.8044 5.69276 24.8469C5.77483 24.8894 5.87056 24.9177 5.9663 24.946C5.98 24.9602 5.99363 24.9602 6.02103 24.9743C6.07576 24.9885 6.14412 25.0026 6.19883 25.0168C6.1578 25.7813 6.1441 26.5034 6.25356 26.7582C6.37665 27.0414 6.97844 26.1778 7.58022 25.1867C7.49816 26.1636 7.44345 27.3104 7.58022 27.6502C7.73067 28.0042 8.55129 26.8998 9.26249 25.6822C18.9595 23.3602 27.8085 30.2978 28.7385 40.0954C28.5607 38.5663 26.7416 37.7168 25.9074 37.9292C25.497 38.9769 24.7995 40.3219 23.678 41.1573C23.7738 40.2228 23.7327 39.2601 23.5412 38.3256C23.2404 39.6282 22.6522 40.8458 21.8453 41.8935C20.546 41.9926 19.2467 41.3413 18.5628 40.3644C18.5081 40.3219 18.4944 40.237 18.4534 40.1804C18.4124 40.0812 18.3713 39.9821 18.344 39.883C18.303 39.7839 18.2756 39.6848 18.2619 39.5857C18.2482 39.4866 18.2482 39.3875 18.2482 39.2742C18.2482 39.2034 18.2482 39.1326 18.2482 39.0618C18.2619 38.9627 18.2893 38.8636 18.3166 38.7645C18.3439 38.6654 18.3713 38.5663 18.4124 38.4672C18.4671 38.3681 18.5081 38.269 18.5765 38.1699C18.809 37.4903 18.809 36.9381 18.385 36.6125C18.3029 36.5558 18.2209 36.5133 18.1251 36.4709C18.0704 36.4567 18.002 36.4284 17.9473 36.4142C17.9063 36.4 17.879 36.3859 17.8379 36.3717C17.7422 36.3434 17.6464 36.3151 17.5507 36.3009C17.455 36.2726 17.3592 36.2585 17.2635 36.2585C17.1678 36.2443 17.0583 36.2302 16.9626 36.2302C16.8942 36.2302 16.8258 36.2443 16.7574 36.2443C16.648 36.2443 16.5523 36.2585 16.4565 36.2868C16.3608 36.301 16.2651 36.3151 16.1693 36.3435C16.0736 36.3718 15.9779 36.4001 15.8821 36.4426C15.7864 36.4851 15.7043 36.5275 15.6086 36.57C15.5265 36.6125 15.4445 36.6691 15.3487 36.7116C12.162 38.8637 14.0631 43.904 16.2377 45.3623C15.4171 45.5181 14.5828 45.7022 14.3503 45.8862C14.3366 45.9004 14.323 45.9145 14.323 45.9145C14.9111 46.2826 15.5265 46.5941 16.1693 46.8631C17.0447 47.1604 17.9747 47.4294 18.385 47.5427V47.5569C19.5202 47.7976 20.6691 47.8825 21.8316 47.8117C27.8905 47.3728 32.8553 42.6015 33.7579 36.3152C33.7853 36.4426 33.8127 36.5558 33.84 36.6833C33.881 36.9381 33.9357 37.2071 33.9631 37.4761V37.4903C33.9904 37.6178 34.0041 37.7452 34.0178 37.8585V37.9151C34.0315 38.0425 34.0451 38.17 34.0451 38.2832C34.0588 38.439 34.0725 38.5947 34.0725 38.7505V38.977C34.0725 39.0478 34.0862 39.1327 34.0862 39.2035C34.0862 39.2885 34.0725 39.3734 34.0725 39.4584V39.6566C34.0725 39.7557 34.0588 39.8406 34.0588 39.9398C34.0588 39.9964 34.0588 40.053 34.0451 40.1238C34.0451 40.2229 34.0314 40.322 34.0314 40.4353C34.0177 40.4778 34.0177 40.5202 34.0177 40.5627C34.004 40.676 33.9903 40.7751 33.9766 40.8884C33.9766 40.9308 33.9766 40.9733 33.9629 41.0158C33.9492 41.1574 33.9219 41.2848 33.9082 41.4264V41.4406V41.4548C33.8809 41.5822 33.8535 41.7238 33.8261 41.8512V41.8937C33.7988 42.0211 33.7714 42.1485 33.7441 42.2759C33.7441 42.2901 33.7304 42.3184 33.7304 42.3326C33.7031 42.46 33.6757 42.5874 33.6347 42.7149V42.7573C33.5936 42.8989 33.5526 43.0263 33.5252 43.1538C33.5115 43.168 33.5115 43.1821 33.5115 43.1821C33.4705 43.3237 33.4295 43.4652 33.3885 43.6068C33.3337 43.7484 33.2927 43.8758 33.238 44.0174C33.1833 44.159 33.1423 44.3006 33.0876 44.428C33.0328 44.5696 32.9781 44.697 32.9234 44.8386H32.9097C32.855 44.966 32.8003 45.1076 32.7319 45.235C32.7182 45.2775 32.7046 45.3058 32.6909 45.3341C32.6772 45.3483 32.6772 45.3624 32.6636 45.3766C31.7746 47.2314 30.4616 48.8596 28.8203 50.1338C28.7109 50.2046 28.6015 50.2896 28.4921 50.3745C28.4647 50.4028 28.4237 50.417 28.3963 50.4453C28.3006 50.5161 28.2049 50.5869 28.0955 50.6577L28.1365 50.7426H28.1502C28.3416 50.7143 28.5331 50.686 28.7246 50.6577H28.7383C29.0939 50.601 29.4495 50.5302 29.8051 50.4595C29.9008 50.4453 30.0103 50.417 30.106 50.3887C30.1744 50.3745 30.2291 50.3604 30.2975 50.3462C30.3932 50.332 30.489 50.3037 30.5847 50.2895C30.6668 50.2612 30.7488 50.2471 30.8309 50.2187C32.1986 49.8789 33.5252 49.4117 34.7972 48.8595C32.6226 51.9319 29.7094 54.4096 26.3038 56.0378C27.8767 55.9246 29.4495 55.6555 30.9676 55.2025C36.4795 53.5176 41.116 49.6807 43.8924 44.5129C43.3316 47.7835 42.0733 50.8983 40.2133 53.6167C41.5399 52.7106 42.7572 51.6629 43.865 50.4736C46.9287 47.1605 48.9392 42.9555 49.623 38.439C50.088 40.676 50.2248 42.9838 50.0197 45.2633C59.8944 31.0059 50.8403 16.2246 47.0518 12.331C47.038 12.3027 47.0244 12.2885 47.0244 12.2602C47.0107 12.2744 47.0107 12.2744 47.0107 12.2885C47.0107 12.2743 47.0107 12.2743 46.997 12.2602C46.997 12.4301 46.9833 12.6 46.9697 12.7699C46.9286 13.0956 46.8876 13.407 46.8329 13.7185C46.7645 14.03 46.6825 14.3415 46.6004 14.653C46.5047 14.9503 46.3953 15.2618 46.2722 15.5591C46.1491 15.8423 46.0123 16.1396 45.8618 16.4228C45.7114 16.6918 45.5473 16.9749 45.3695 17.2298C45.1917 17.4988 45.0002 17.7537 44.8087 17.9943C44.6036 18.2492 44.3847 18.4757 44.1659 18.7023C44.0291 18.8297 43.906 18.943 43.7693 19.0562C43.6599 19.1553 43.5641 19.2403 43.4547 19.3394C43.2085 19.5376 42.9623 19.7217 42.6888 19.8916C42.4289 20.0615 42.1554 20.2314 41.8819 20.3729C41.5946 20.5145 41.3074 20.642 41.0202 20.7694C40.733 20.8826 40.4321 20.9818 40.1312 21.0667C39.8303 21.1517 39.5157 21.2224 39.2148 21.2791C38.9003 21.3357 38.5857 21.364 38.2848 21.3923C38.066 21.4065 37.8472 21.4206 37.6283 21.4206C37.3137 21.4206 36.9992 21.3923 36.6983 21.364C36.3837 21.3357 36.0691 21.2932 35.7683 21.2224C35.4537 21.1657 35.1528 21.0808 34.8519 20.9817H34.8382C35.1391 20.9534 35.44 20.925 35.7409 20.8684C36.0554 20.8118 36.3563 20.741 36.6572 20.6561C36.9581 20.5711 37.259 20.472 37.5462 20.3587C37.8471 20.2455 38.1343 20.1039 38.4079 19.9623C38.6951 19.8207 38.955 19.665 39.2285 19.4951C39.4884 19.311 39.7482 19.127 39.9944 18.9287C40.2406 18.7305 40.4731 18.5182 40.6919 18.2916C40.9244 18.0792 41.1296 17.8386 41.3348 17.5979C41.5399 17.343 41.7314 17.0882 41.9092 16.8333C41.9365 16.7908 41.9639 16.7342 41.9913 16.6917C42.128 16.4652 42.2648 16.2387 42.3879 16.0121C42.5383 15.729 42.6751 15.4458 42.7982 15.1485C42.9213 14.8511 43.0307 14.5538 43.1264 14.2423C43.2222 13.945 43.2906 13.6335 43.3589 13.322C43.4137 12.9964 43.4684 12.6849 43.4957 12.3734C43.523 12.0478 43.5504 11.7221 43.5504 11.4107C43.5504 11.1841 43.5367 10.9576 43.5231 10.7311C43.4958 10.4054 43.4547 10.0939 43.4137 9.78246C43.359 9.45682 43.2906 9.14534 43.2085 8.83385C43.1128 8.53653 43.0171 8.22504 42.9077 7.92772C42.7982 7.63039 42.6615 7.33306 42.5247 7.04989C42.3742 6.76673 42.2238 6.48356 42.0597 6.21456C41.8819 5.94555 41.7041 5.6907 41.5126 5.43584C41.3074 5.19515 41.1023 4.95446 40.8835 4.71377C40.774 4.60051 40.6509 4.47308 40.5279 4.35982C39.9124 3.86427 39.2696 3.39704 38.6268 2.97229C38.531 2.91564 38.449 2.87318 38.3532 2.83071C37.9019 2.53339 37.4779 2.37756 37.0539 2.23598Z" fill="black"/>
</g>
<defs>
<clipPath id="clip0_205_721">
<rect width="56" height="56" fill="white" transform="translate(0.25 0.5)"/>
</clipPath>
</defs>
</svg>
