<svg width="57" height="57" viewBox="0 0 57 57" fill="none" xmlns="http://www.w3.org/2000/svg">
<path d="M49.4835 26.2833L30.4668 7.26659C29.8835 6.68325 29.0668 6.33325 28.2502 6.33325C27.4335 6.33325 26.6168 6.68325 26.0335 7.26659L21.9502 11.3499L26.7335 16.1333C27.2002 15.8999 27.6668 15.7833 28.2502 15.7833C30.2335 15.7833 31.7502 17.2999 31.7502 19.2833C31.7502 19.8666 31.6335 20.3333 31.4002 20.7999L36.0668 25.4666C36.5335 25.2333 37.0002 25.1166 37.5835 25.1166C39.5668 25.1166 41.0835 26.6333 41.0835 28.6166C41.0835 30.5999 39.5668 32.1166 37.5835 32.1166C35.6002 32.1166 34.0835 30.5999 34.0835 28.6166C34.0835 28.0333 34.2002 27.5666 34.4335 27.0999L29.7668 22.4333C29.6502 22.4333 29.5335 22.5499 29.4168 22.5499V34.6833C30.8168 35.1499 31.7502 36.4333 31.7502 37.9499C31.7502 39.9333 30.2335 41.4499 28.2502 41.4499C26.2668 41.4499 24.7502 39.9333 24.7502 37.9499C24.7502 36.4333 25.6835 35.1499 27.0835 34.6833V22.4333C25.6835 21.9666 24.7502 20.6833 24.7502 19.1666C24.7502 18.5833 24.8668 18.1166 25.1002 17.6499L20.3168 12.8666L7.01683 26.2833C6.4335 26.8666 6.0835 27.6833 6.0835 28.4999C6.0835 29.3166 6.4335 30.1333 7.01683 30.7166L26.0335 49.7333C26.6168 50.3166 27.4335 50.6666 28.2502 50.6666C29.0668 50.6666 29.8835 50.3166 30.4668 49.7333L49.4835 30.7166C50.0668 30.1333 50.4168 29.3166 50.4168 28.4999C50.4168 27.6833 50.0668 26.8666 49.4835 26.2833Z" fill="black"/>
</svg>
