<svg width="56" height="57" viewBox="0 0 56 57" fill="none" xmlns="http://www.w3.org/2000/svg">
<g clip-path="url(#clip0_205_745)">
<path d="M55.9894 27.8831C55.8371 18.5206 50.6169 9.40486 42.5406 4.60461C36.1776 0.641739 28.1399 -0.424886 20.9001 1.40386C10.0038 4.14699 1.31677 14.0152 0.212521 25.2625C-1.15948 35.885 4.21302 46.9327 13.3944 52.3805C22.3859 58.019 34.6158 57.7906 43.4069 51.8555C51.3318 46.7122 56.2467 37.3305 55.9807 27.891L55.9894 27.8831ZM29.5486 52.3437C16.8235 53.6011 4.51752 42.8194 4.17365 30.0557C3.21115 19.6931 10.0405 9.44424 19.7941 6.01511C33.4721 0.528864 50.2739 10.6631 51.6835 25.3325C53.8938 38.5135 42.9213 51.9325 29.5486 52.3437ZM21.1749 27.0825L39.5761 12.0325L29.6326 27.1201C26.8134 27.1201 23.9941 27.121 21.1749 27.0825ZM26.3488 29.865L34.8065 29.9035L16.4053 44.9911L26.3488 29.865Z" fill="#010101"/>
</g>
<defs>
<clipPath id="clip0_205_745">
<rect width="56" height="56" fill="white" transform="translate(0 0.5)"/>
</clipPath>
</defs>
</svg>
