<svg width="57" height="57" viewBox="0 0 57 57" fill="none" xmlns="http://www.w3.org/2000/svg">
<path d="M0.5 56.5V0.5H56.5V56.5H0.5Z" fill="white"/>
<path d="M37.1147 42.4176C38.1912 44.166 39.361 45.8414 41.839 45.8414C43.9203 45.8414 45.0123 44.8069 45.0123 43.3758C45.0123 41.6631 43.883 41.0549 41.5932 40.0578L40.3378 39.5227C36.715 37.9858 34.3054 36.06 34.3054 31.9923C34.3054 28.2434 37.1754 25.3905 41.6601 25.3905C44.8536 25.3905 47.1481 26.4965 48.8032 29.3929L44.8925 31.8927C44.0323 30.3558 43.1021 29.7507 41.6601 29.7507C40.1885 29.7507 39.2567 30.6794 39.2567 31.8927C39.2567 33.3922 40.1901 33.9989 42.3445 34.9276L43.5998 35.4627C47.8698 37.2811 50.2778 39.1385 50.2778 43.3136C50.2778 47.8122 46.725 50.2778 41.9556 50.2778C37.2905 50.2778 34.6414 47.9367 33.1667 45.0387L37.1147 42.4176ZM19.0921 42.5451C19.8792 43.9545 21.0754 45.0387 22.7958 45.0387C24.4416 45.0387 25.389 44.3885 25.389 41.8607V25.3889H30.5736V42.6571C30.5736 47.8947 27.5356 50.2778 23.0992 50.2778C19.0905 50.2778 16.1972 47.5618 15.0181 45.0387L19.0921 42.5451Z" fill="black"/>
</svg>
