<svg width="56" height="57" viewBox="0 0 56 57" fill="none" xmlns="http://www.w3.org/2000/svg">
<g clip-path="url(#clip0_205_742)">
<path fill-rule="evenodd" clip-rule="evenodd" d="M32.4549 1.42896C32.0719 1.42896 31.7163 1.51391 31.3881 1.62717C32.0856 2.10855 32.4685 2.74568 32.66 3.46776C32.6737 3.56687 32.701 3.63766 32.7147 3.73676C32.7285 3.82172 32.7421 3.90667 32.7421 3.99162C32.7968 5.23755 32.4275 5.39329 32.1676 6.12953C31.771 7.07814 31.8804 8.09754 32.3591 8.91872C32.4001 9.01783 32.4549 9.1311 32.5232 9.23021C32.0035 5.64814 34.8894 5.11013 35.4228 3.99162C35.4638 3.01469 34.6842 2.36341 34.0687 1.91034C33.4806 1.54222 32.9472 1.42896 32.4549 1.42896ZM36.8041 2.23598C36.7494 2.56162 36.7904 2.47667 36.7768 2.64657C36.7631 2.75984 36.7631 2.90143 36.7495 3.01469C36.7221 3.12796 36.6947 3.24122 36.6537 3.35449C36.6264 3.46776 36.5853 3.58103 36.5443 3.69429C36.4896 3.80756 36.4486 3.90667 36.3939 4.01993C36.3528 4.07659 36.3255 4.1332 36.2845 4.18983C36.2571 4.23231 36.2297 4.27478 36.2024 4.31726C36.134 4.41637 36.0656 4.51548 35.9972 4.60042C35.9152 4.68538 35.8468 4.78448 35.751 4.85528V4.86945C35.669 4.94025 35.5869 5.0252 35.4912 5.09599C35.204 5.32252 34.8757 5.49242 34.5748 5.7048C34.4791 5.77559 34.3833 5.83222 34.3013 5.91717C34.2056 5.98796 34.1235 6.05875 34.0414 6.1437C33.9457 6.22865 33.8773 6.31361 33.7952 6.41272C33.7269 6.49767 33.6448 6.59677 33.5901 6.69588C33.5217 6.79499 33.4533 6.8941 33.3986 6.99321C33.3439 7.10647 33.3029 7.20558 33.2482 7.31885C33.2071 7.43211 33.1661 7.53122 33.1387 7.64449C33.0977 7.77191 33.0704 7.88518 33.043 7.99845C33.0293 8.05511 33.0293 8.12587 33.0157 8.18251C33.002 8.23916 33.002 8.29577 32.9883 8.35241C32.9883 8.46567 32.9747 8.5931 32.9747 8.70636C32.9747 8.79132 32.9747 8.87627 32.9883 8.96122C32.9883 9.07448 33.002 9.18775 33.0294 9.31517C33.0431 9.42844 33.0704 9.54171 33.0978 9.65498C33.1388 9.76824 33.1661 9.88151 33.2072 9.99477C33.2345 10.0656 33.2756 10.1364 33.3029 10.193L30.1572 8.9329C29.6238 8.77716 29.1041 8.63558 28.5707 8.50815C28.2835 8.43736 27.9963 8.36657 27.709 8.29577C26.8884 8.12587 26.0541 7.99845 25.2198 7.9135C25.1925 7.9135 25.1788 7.89932 25.1514 7.89932C24.3308 7.81437 23.5239 7.7719 22.7033 7.7719C22.1015 7.7719 21.4997 7.80019 20.9116 7.84269C20.0773 7.89935 19.243 8.01259 18.4087 8.15417C18.2035 8.18247 17.9984 8.22497 17.7932 8.26744C17.3692 8.35239 16.9589 8.4515 16.5623 8.55061C16.3572 8.60726 16.152 8.66388 15.9468 8.72051C15.7417 8.80545 15.5502 8.90457 15.3587 8.98952C15.2083 9.06031 15.0578 9.1311 14.9074 9.20189C14.8801 9.21607 14.8527 9.21607 14.839 9.23019C14.7022 9.30098 14.5791 9.35761 14.4561 9.4284C14.415 9.44258 14.3877 9.4567 14.3603 9.47088C14.2099 9.54167 14.0594 9.62662 13.9363 9.69741C13.8406 9.73989 13.7449 9.79652 13.6628 9.839C13.6218 9.86729 13.5671 9.89565 13.5397 9.90979C13.4166 9.98058 13.2935 10.0514 13.1841 10.1222C13.061 10.193 12.9516 10.2637 12.8558 10.3345C12.7601 10.4053 12.6644 10.462 12.5823 10.5327C12.5686 10.5469 12.555 10.5469 12.5413 10.561C12.4592 10.6177 12.3635 10.6885 12.2814 10.7593C12.2814 10.7593 12.2677 10.7734 12.2541 10.7876C12.1857 10.8442 12.1173 10.9008 12.0489 10.9575C12.0216 10.9716 11.9942 10.9999 11.9669 11.0141C11.8985 11.0708 11.8301 11.1415 11.7617 11.1982C11.748 11.2265 11.7207 11.2407 11.707 11.2548C11.6249 11.3398 11.5429 11.4106 11.4608 11.4955C11.4471 11.4955 11.4471 11.5097 11.4335 11.5238C11.3514 11.5946 11.2693 11.6796 11.1873 11.7645C11.1736 11.7787 11.1736 11.7928 11.1599 11.7928C11.0916 11.8636 11.0232 11.9344 10.9548 12.0193C10.9275 12.0476 10.8864 12.076 10.8591 12.1043C10.7907 12.1892 10.7086 12.2742 10.6266 12.3591C10.6128 12.3874 10.5855 12.4016 10.5718 12.4299C10.4624 12.5432 10.3667 12.6565 10.2573 12.7697C10.2436 12.7839 10.2299 12.798 10.2162 12.8122C9.99738 13.0529 9.76488 13.2936 9.51869 13.506C9.27251 13.7325 9.01265 13.9449 8.75278 14.1289C8.47924 14.3272 8.21938 14.497 7.93216 14.6669C7.65863 14.8227 7.37141 14.9643 7.07052 15.0917C6.7833 15.2191 6.48241 15.3324 6.18152 15.4315C5.60708 15.5589 5.01897 15.7996 4.51292 15.8421C4.40351 15.8421 4.28041 15.8704 4.171 15.8846C4.04791 15.9129 3.93849 15.9412 3.82908 15.9695C3.71966 16.012 3.61024 16.0545 3.50083 16.0969C3.39141 16.1394 3.282 16.196 3.17258 16.2527C3.07684 16.3235 2.96743 16.3801 2.87169 16.4509C2.77595 16.5217 2.68021 16.6066 2.59815 16.6916C2.50241 16.7624 2.40667 16.8615 2.32461 16.9464C2.24255 17.0456 2.16048 17.1305 2.0921 17.2296C2.02372 17.3429 1.94166 17.442 1.88695 17.5553C1.81856 17.6544 1.75018 17.7676 1.69547 17.8809C1.64074 18.0083 1.58605 18.1216 1.54502 18.249C1.50399 18.3623 1.46296 18.4897 1.42193 18.6171C1.3946 18.7304 1.3672 18.8437 1.35355 18.9569C1.35355 18.9711 1.33985 18.9852 1.33985 18.9994C1.31252 19.1268 1.31252 19.2967 1.29882 19.3817C1.28512 19.4808 1.27148 19.5657 1.27148 19.6648C1.27148 19.7215 1.27148 19.7923 1.28518 19.8489C1.29888 19.948 1.31251 20.033 1.33991 20.1179C1.36724 20.2029 1.39464 20.2878 1.43565 20.3728V20.3869C1.47668 20.4719 1.53139 20.5568 1.58609 20.6418C1.64082 20.7267 1.69551 20.8117 1.7639 20.8967C1.83228 20.9674 1.91434 21.0524 1.9964 21.1232C2.07847 21.2081 2.16053 21.2789 2.25626 21.3497C2.58451 21.647 2.66658 21.7461 3.09056 21.9727C3.15894 22.0152 3.22733 22.0435 3.3094 22.0859C3.3231 22.0859 3.33673 22.1001 3.35043 22.1001C3.35043 22.1284 3.35043 22.1426 3.36413 22.1709C3.37783 22.2842 3.40516 22.3975 3.43251 22.5107C3.45984 22.6381 3.5009 22.7514 3.54193 22.8505C3.58296 22.9355 3.61032 23.0204 3.65135 23.1054C3.66504 23.1337 3.67868 23.162 3.69238 23.1762C3.74711 23.2894 3.80179 23.3885 3.8565 23.4876C3.92489 23.5868 3.99327 23.6859 4.06165 23.785C4.13004 23.8699 4.2121 23.969 4.29416 24.054C4.37622 24.1389 4.45828 24.2097 4.55403 24.2947C4.55403 24.2947 4.56773 24.3089 4.58136 24.3089C4.66342 24.3797 4.74548 24.4505 4.82755 24.5071C4.92328 24.5779 5.01902 24.6345 5.12844 24.6911C5.22418 24.7478 5.33359 24.8044 5.44301 24.8469C5.52507 24.8894 5.6208 24.9177 5.71655 24.946C5.73025 24.9602 5.74388 24.9602 5.77128 24.9743C5.82601 24.9885 5.89436 25.0026 5.94907 25.0168C5.90804 25.7813 5.89434 26.5034 6.0038 26.7582C6.12689 27.0414 6.72868 26.1778 7.33047 25.1867C7.24841 26.1636 7.1937 27.3104 7.33047 27.6502C7.48091 28.0042 8.30153 26.8998 9.01273 25.6822C18.7097 23.3602 27.5587 30.2978 28.4887 40.0954C28.3109 38.5663 26.4919 37.7168 25.6576 37.9292C25.2473 38.9769 24.5498 40.3219 23.4283 41.1573C23.524 40.2228 23.483 39.2601 23.2915 38.3256C22.9906 39.6282 22.4025 40.8458 21.5955 41.8935C20.2962 41.9926 18.9969 41.3413 18.3131 40.3644C18.2583 40.3219 18.2447 40.237 18.2036 40.1804C18.1626 40.0812 18.1216 39.9821 18.0942 39.883C18.0532 39.7839 18.0259 39.6848 18.0122 39.5857C17.9985 39.4866 17.9985 39.3875 17.9985 39.2742C17.9985 39.2034 17.9985 39.1326 17.9985 39.0618C18.0122 38.9627 18.0395 38.8636 18.0669 38.7645C18.0942 38.6654 18.1216 38.5663 18.1626 38.4672C18.2173 38.3681 18.2583 38.269 18.3267 38.1699C18.5592 37.4903 18.5592 36.9381 18.1352 36.6125C18.0532 36.5558 17.9711 36.5133 17.8754 36.4709C17.8206 36.4567 17.7523 36.4284 17.6976 36.4142C17.6566 36.4 17.6292 36.3859 17.5882 36.3717C17.4924 36.3434 17.3967 36.3151 17.3009 36.3009C17.2052 36.2726 17.1095 36.2585 17.0137 36.2585C16.918 36.2443 16.8086 36.2302 16.7128 36.2302C16.6445 36.2302 16.5761 36.2443 16.5077 36.2443C16.3983 36.2443 16.3025 36.2585 16.2068 36.2868C16.1111 36.301 16.0153 36.3151 15.9196 36.3435C15.8238 36.3718 15.7281 36.4001 15.6324 36.4426C15.5366 36.4851 15.4546 36.5275 15.3588 36.57C15.2768 36.6125 15.1947 36.6691 15.099 36.7116C11.9122 38.8637 13.8133 43.904 15.988 45.3623C15.1673 45.5181 14.333 45.7022 14.1005 45.8862C14.0868 45.9004 14.0732 45.9145 14.0732 45.9145C14.6613 46.2826 15.2768 46.5941 15.9196 46.8631C16.7949 47.1604 17.725 47.4294 18.1353 47.5427V47.5569C19.2705 47.7976 20.4193 47.8825 21.5819 47.8117C27.6408 47.3728 32.6055 42.6015 33.5082 36.3152C33.5355 36.4426 33.5629 36.5558 33.5902 36.6833C33.6313 36.9381 33.686 37.2071 33.7133 37.4761V37.4903C33.7407 37.6178 33.7544 37.7452 33.7681 37.8585V37.9151C33.7818 38.0425 33.7954 38.17 33.7954 38.2832C33.8091 38.439 33.8227 38.5947 33.8227 38.7505V38.977C33.8227 39.0478 33.8364 39.1327 33.8364 39.2035C33.8364 39.2885 33.8227 39.3734 33.8227 39.4584V39.6566C33.8227 39.7557 33.809 39.8406 33.809 39.9398C33.809 39.9964 33.809 40.053 33.7953 40.1238C33.7953 40.2229 33.7816 40.322 33.7816 40.4353C33.7679 40.4778 33.7679 40.5202 33.7679 40.5627C33.7542 40.676 33.7406 40.7751 33.7269 40.8884C33.7269 40.9308 33.7269 40.9733 33.7132 41.0158C33.6995 41.1574 33.6721 41.2848 33.6585 41.4264V41.4406V41.4548C33.6311 41.5822 33.6037 41.7238 33.5764 41.8512V41.8937C33.5491 42.0211 33.5217 42.1485 33.4943 42.2759C33.4943 42.2901 33.4806 42.3184 33.4806 42.3326C33.4533 42.46 33.4259 42.5874 33.3849 42.7149V42.7573C33.3439 42.8989 33.3028 43.0263 33.2755 43.1538C33.2618 43.168 33.2618 43.1821 33.2618 43.1821C33.2208 43.3237 33.1797 43.4652 33.1387 43.6068C33.084 43.7484 33.043 43.8758 32.9883 44.0174C32.9335 44.159 32.8925 44.3006 32.8378 44.428C32.7831 44.5696 32.7284 44.697 32.6737 44.8386H32.66C32.6052 44.966 32.5505 45.1076 32.4822 45.235C32.4685 45.2775 32.4548 45.3058 32.4411 45.3341C32.4274 45.3483 32.4274 45.3624 32.4138 45.3766C31.5248 47.2314 30.2118 48.8596 28.5706 50.1338C28.4612 50.2046 28.3517 50.2896 28.2423 50.3745C28.215 50.4028 28.1739 50.417 28.1466 50.4453C28.0508 50.5161 27.9551 50.5869 27.8457 50.6577L27.8867 50.7426H27.9004C28.0919 50.7143 28.2834 50.686 28.4748 50.6577H28.4885C28.8441 50.601 29.1997 50.5302 29.5554 50.4595C29.6511 50.4453 29.7605 50.417 29.8562 50.3887C29.9246 50.3745 29.9793 50.3604 30.0477 50.3462C30.1435 50.332 30.2392 50.3037 30.3349 50.2895C30.417 50.2612 30.4991 50.2471 30.5811 50.2187C31.9488 49.8789 33.2755 49.4117 34.5474 48.8595C32.3728 51.9319 29.4596 54.4096 26.054 56.0378C27.6269 55.9246 29.1997 55.6555 30.7179 55.2025C36.2297 53.5176 40.8662 49.6807 43.6426 44.5129C43.0819 47.7835 41.8236 50.8983 39.9635 53.6167C41.2902 52.7106 42.5074 51.6629 43.6153 50.4736C46.6789 47.1605 48.6894 42.9555 49.3733 38.439C49.8383 40.676 49.9751 42.9838 49.7699 45.2633C59.6447 31.0059 50.5905 16.2246 46.802 12.331C46.7883 12.3027 46.7747 12.2885 46.7747 12.2602C46.761 12.2744 46.761 12.2744 46.761 12.2885C46.761 12.2743 46.761 12.2743 46.7473 12.2602C46.7473 12.4301 46.7336 12.6 46.7199 12.7699C46.6789 13.0956 46.6379 13.407 46.5832 13.7185C46.5148 14.03 46.4327 14.3415 46.3506 14.653C46.2549 14.9503 46.1455 15.2618 46.0224 15.5591C45.8993 15.8423 45.7625 16.1396 45.6121 16.4228C45.4616 16.6918 45.2975 16.9749 45.1197 17.2298C44.9419 17.4988 44.7504 17.7537 44.559 17.9943C44.3538 18.2492 44.135 18.4757 43.9161 18.7023C43.7794 18.8297 43.6563 18.943 43.5195 19.0562C43.4101 19.1553 43.3144 19.2403 43.2049 19.3394C42.9588 19.5376 42.7126 19.7217 42.439 19.8916C42.1792 20.0615 41.9056 20.2314 41.6321 20.3729C41.3449 20.5145 41.0577 20.642 40.7704 20.7694C40.4832 20.8826 40.1823 20.9818 39.8814 21.0667C39.5805 21.1517 39.266 21.2224 38.9651 21.2791C38.6505 21.3357 38.3359 21.364 38.0351 21.3923C37.8162 21.4065 37.5974 21.4206 37.3786 21.4206C37.064 21.4206 36.7494 21.3923 36.4485 21.364C36.134 21.3357 35.8194 21.2932 35.5185 21.2224C35.2039 21.1657 34.903 21.0808 34.6021 20.9817H34.5884C34.8893 20.9534 35.1902 20.925 35.4911 20.8684C35.8057 20.8118 36.1066 20.741 36.4075 20.6561C36.7084 20.5711 37.0093 20.472 37.2965 20.3587C37.5974 20.2455 37.8846 20.1039 38.1581 19.9623C38.4453 19.8207 38.7052 19.665 38.9787 19.4951C39.2386 19.311 39.4985 19.127 39.7447 18.9287C39.9908 18.7305 40.2233 18.5182 40.4422 18.2916C40.6747 18.0792 40.8798 17.8386 41.085 17.5979C41.2901 17.343 41.4816 17.0882 41.6594 16.8333C41.6868 16.7908 41.7142 16.7342 41.7415 16.6917C41.8783 16.4652 42.015 16.2387 42.1381 16.0121C42.2886 15.729 42.4253 15.4458 42.5484 15.1485C42.6715 14.8511 42.7809 14.5538 42.8767 14.2423C42.9724 13.945 43.0408 13.6335 43.1092 13.322C43.1639 12.9964 43.2186 12.6849 43.246 12.3734C43.2733 12.0478 43.3007 11.7221 43.3007 11.4107C43.3007 11.1841 43.287 10.9576 43.2734 10.7311C43.246 10.4054 43.205 10.0939 43.1639 9.78246C43.1092 9.45682 43.0409 9.14534 42.9588 8.83385C42.8631 8.53653 42.7673 8.22504 42.6579 7.92772C42.5485 7.63039 42.4117 7.33306 42.2749 7.04989C42.1245 6.76673 41.974 6.48356 41.8099 6.21456C41.6321 5.94555 41.4543 5.6907 41.2628 5.43584C41.0577 5.19515 40.8525 4.95446 40.6337 4.71377C40.5243 4.60051 40.4012 4.47308 40.2781 4.35982C39.6626 3.86427 39.0198 3.39704 38.377 2.97229C38.2813 2.91564 38.1992 2.87318 38.1035 2.83071C37.6521 2.53339 37.2281 2.37756 36.8041 2.23598Z" fill="black"/>
</g>
<defs>
<clipPath id="clip0_205_742">
<rect width="56" height="56" fill="white" transform="translate(0 0.5)"/>
</clipPath>
</defs>
</svg>
