<svg width="56" height="57" viewBox="0 0 56 57" fill="none" xmlns="http://www.w3.org/2000/svg">
<g clip-path="url('#clip0_9_166')">
<path d="M55.9895 27.8831C55.8373 18.5206 50.617 9.40486 42.5408 4.60461C36.1778 0.641739 28.14 -0.424886 20.9003 1.40386C10.0039 4.14699 1.31689 14.0152 0.212643 25.2625C-1.15936 35.885 4.21314 46.9327 13.3945 52.3805C22.386 58.019 34.6159 57.7906 43.407 51.8555C51.3319 46.7122 56.2468 37.3305 55.9808 27.891L55.9895 27.8831ZM29.5488 52.3437C16.8236 53.6011 4.51764 42.8194 4.17377 30.0557C3.21127 19.6931 10.0406 9.44424 19.7943 6.01511C33.4723 0.528864 50.274 10.6631 51.6836 25.3325C53.8939 38.5135 42.9214 51.9325 29.5488 52.3437ZM21.175 27.0825L39.5763 12.0325L29.6328 27.1201C26.8135 27.1201 23.9943 27.121 21.175 27.0825ZM26.3489 29.865L34.8066 29.9035L16.4054 44.9911L26.3489 29.865Z" fill="#010101"></path>
</g>
<defs>
<clipPath id="clip0_9_166">
<rect width="56" height="56" fill="white" transform="translate(0 0.5)"></rect>
</clipPath>
</defs>
</svg>
