<svg width="56" height="57" viewBox="0 0 56 57" fill="none" xmlns="http://www.w3.org/2000/svg">
<path fill-rule="evenodd" clip-rule="evenodd" d="M9.85483 49.1535L8.33583 8.70402C8.288 7.36819 9.31467 6.23769 10.6482 6.15602L37.6075 4.47019L39.6667 5.16669L42.3442 4.17385L45.0462 4.00469C46.403 3.91835 47.5732 4.94852 47.6607 6.30535C47.6642 6.35785 47.6653 6.41152 47.6653 6.46519V50.5384C47.6642 51.8999 46.5593 53.0024 45.1978 53.0012C45.1617 53.0012 45.1255 53 45.0905 52.9989L12.2068 51.5219C10.9258 51.4647 9.90383 50.4357 9.85483 49.1535Z" fill="black"></path>
<path fill-rule="evenodd" clip-rule="evenodd" d="M42.3418 4.17383L37.6087 4.46783L37.3788 10.0223C37.3707 10.2253 37.5282 10.3957 37.7311 10.405C37.8163 10.4085 37.8992 10.3828 37.9668 10.3315L40.1228 8.69466L41.9452 10.1308C42.1038 10.2568 42.336 10.23 42.4608 10.0713C42.5145 10.0025 42.5425 9.91733 42.5402 9.82983L42.3441 4.17499L42.3418 4.17383ZM38.6575 22.7693C37.793 23.4425 31.3343 23.901 31.3343 22.9432C31.472 19.2857 29.8351 19.1258 28.924 19.1258C28.0618 19.1258 26.6058 19.386 26.6058 21.346C26.6058 23.3422 28.7326 24.4692 31.2293 25.7922C34.7748 27.6717 39.0693 29.9478 39.0693 35.6703C39.0693 41.1583 34.6103 44.187 28.9263 44.187C23.0592 44.187 17.9305 41.8128 18.5092 33.5832C18.7367 32.6183 26.1975 32.8482 26.1975 33.5832C26.1042 36.9793 26.8788 37.978 28.8342 37.978C30.3357 37.978 31.017 37.1497 31.017 35.7578C31.017 33.6485 28.8027 32.4037 26.2523 30.9733C22.8002 29.0355 18.7378 26.7547 18.7378 21.5187C18.7378 16.2955 22.33 12.8118 28.7431 12.8118C35.1563 12.8118 38.6575 16.243 38.6575 22.7693Z" fill="white"></path>
</svg>
