<svg width="57" height="57" viewBox="0 0 57 57" fill="none" xmlns="http://www.w3.org/2000/svg">
<path d="M49.4833 26.2833L30.4667 7.26665C29.8833 6.68331 29.0667 6.33331 28.25 6.33331C27.4333 6.33331 26.6167 6.68331 26.0333 7.26665L21.95 11.35L26.7333 16.1333C27.2 15.9 27.6667 15.7833 28.25 15.7833C30.2333 15.7833 31.75 17.3 31.75 19.2833C31.75 19.8666 31.6333 20.3333 31.4 20.8L36.0667 25.4666C36.5333 25.2333 37 25.1166 37.5833 25.1166C39.5667 25.1166 41.0833 26.6333 41.0833 28.6166C41.0833 30.6 39.5667 32.1166 37.5833 32.1166C35.6 32.1166 34.0833 30.6 34.0833 28.6166C34.0833 28.0333 34.2 27.5666 34.4333 27.1L29.7667 22.4333C29.65 22.4333 29.5333 22.55 29.4167 22.55V34.6833C30.8167 35.15 31.75 36.4333 31.75 37.95C31.75 39.9333 30.2333 41.45 28.25 41.45C26.2667 41.45 24.75 39.9333 24.75 37.95C24.75 36.4333 25.6833 35.15 27.0833 34.6833V22.4333C25.6833 21.9666 24.75 20.6833 24.75 19.1666C24.75 18.5833 24.8667 18.1166 25.1 17.65L20.3167 12.8666L7.01666 26.2833C6.43333 26.8666 6.08333 27.6833 6.08333 28.5C6.08333 29.3166 6.43333 30.1333 7.01666 30.7166L26.0333 49.7333C26.6167 50.3167 27.4333 50.6666 28.25 50.6666C29.0667 50.6666 29.8833 50.3167 30.4667 49.7333L49.4833 30.7166C50.0667 30.1333 50.4167 29.3166 50.4167 28.5C50.4167 27.6833 50.0667 26.8666 49.4833 26.2833Z" fill="black"></path>
</svg>
