<svg width="57" height="57" viewBox="0 0 57 57" fill="none" xmlns="http://www.w3.org/2000/svg">
<g clip-path="url('#clip0_9_144')">
<path fill-rule="evenodd" clip-rule="evenodd" d="M32.7046 1.42902C32.3217 1.42902 31.9661 1.51397 31.6378 1.62723C32.3353 2.10862 32.7183 2.74575 32.9098 3.46782C32.9235 3.56693 32.9508 3.63772 32.9645 3.73682C32.9782 3.82178 32.9918 3.90673 32.9918 3.99168C33.0466 5.23761 32.6773 5.39335 32.4174 6.12959C32.0208 7.0782 32.1302 8.0976 32.6089 8.91879C32.6499 9.01789 32.7046 9.13116 32.773 9.23027C32.2533 5.6482 35.1391 5.11019 35.6725 3.99168C35.7135 3.01475 34.934 2.36347 34.3185 1.9104C33.7304 1.54228 33.197 1.42902 32.7046 1.42902ZM37.0539 2.23604C36.9992 2.56168 37.0402 2.47673 37.0266 2.64664C37.0129 2.7599 37.0129 2.90149 36.9992 3.01475C36.9719 3.12802 36.9445 3.24128 36.9035 3.35456C36.8761 3.46782 36.8351 3.58109 36.7941 3.69435C36.7393 3.80762 36.6983 3.90673 36.6436 4.01999C36.6026 4.07665 36.5752 4.13326 36.5342 4.1899C36.5069 4.23237 36.4795 4.27485 36.4521 4.31732C36.3838 4.41643 36.3154 4.51554 36.247 4.60049C36.1649 4.68544 36.0965 4.78454 36.0008 4.85534V4.86952C35.9187 4.94031 35.8367 5.02526 35.7409 5.09605C35.4537 5.32258 35.1255 5.49248 34.8246 5.70486C34.7288 5.77565 34.6331 5.83228 34.551 5.91723C34.4553 5.98802 34.3732 6.05881 34.2912 6.14377C34.1954 6.22871 34.1271 6.31367 34.045 6.41278C33.9766 6.49773 33.8946 6.59683 33.8398 6.69594C33.7715 6.79505 33.7031 6.89416 33.6484 6.99327C33.5936 7.10653 33.5526 7.20564 33.4979 7.31891C33.4569 7.43217 33.4159 7.53128 33.3885 7.64455C33.3475 7.77197 33.3201 7.88524 33.2928 7.99851C33.2791 8.05517 33.2791 8.12593 33.2654 8.18257C33.2517 8.23922 33.2517 8.29583 33.2381 8.35247C33.2381 8.46573 33.2244 8.59316 33.2244 8.70642C33.2244 8.79138 33.2244 8.87633 33.2381 8.96128C33.2381 9.07454 33.2518 9.18781 33.2791 9.31524C33.2928 9.4285 33.3202 9.54177 33.3475 9.65504C33.3885 9.7683 33.4159 9.88157 33.4569 9.99483C33.4843 10.0656 33.5253 10.1364 33.5527 10.193L30.407 8.93296C29.8736 8.77722 29.3538 8.63564 28.8204 8.50821C28.5332 8.43742 28.246 8.36663 27.9588 8.29583C27.1382 8.12593 26.3039 7.99851 25.4696 7.91356C25.4423 7.91356 25.4286 7.89938 25.4012 7.89938C24.5806 7.81444 23.7736 7.77196 22.953 7.77196C22.3512 7.77196 21.7494 7.80025 21.1613 7.84275C20.327 7.89941 19.4927 8.01265 18.6585 8.15423C18.4533 8.18253 18.2481 8.22503 18.043 8.2675C17.619 8.35245 17.2087 8.45156 16.8121 8.55067C16.6069 8.60733 16.4018 8.66394 16.1966 8.72057C15.9914 8.80552 15.8 8.90463 15.6085 8.98958C15.458 9.06037 15.3076 9.13116 15.1572 9.20195C15.1298 9.21613 15.1024 9.21613 15.0888 9.23025C14.952 9.30104 14.8289 9.35767 14.7058 9.42847C14.6648 9.44264 14.6374 9.45676 14.6101 9.47094C14.4596 9.54173 14.3092 9.62668 14.1861 9.69747C14.0903 9.73995 13.9946 9.79658 13.9125 9.83906C13.8715 9.86735 13.8168 9.89571 13.7895 9.90985C13.6664 9.98064 13.5433 10.0514 13.4339 10.1222C13.3108 10.193 13.2013 10.2638 13.1056 10.3346C13.0099 10.4054 12.9141 10.462 12.8321 10.5328C12.8184 10.547 12.8047 10.547 12.791 10.5611C12.709 10.6178 12.6132 10.6885 12.5312 10.7593C12.5312 10.7593 12.5175 10.7735 12.5038 10.7876C12.4355 10.8443 12.3671 10.9009 12.2987 10.9575C12.2714 10.9717 12.244 11 12.2166 11.0142C12.1482 11.0708 12.0799 11.1416 12.0115 11.1982C11.9978 11.2265 11.9704 11.2407 11.9567 11.2549C11.8747 11.3398 11.7926 11.4106 11.7106 11.4956C11.6969 11.4956 11.6969 11.5098 11.6832 11.5239C11.6012 11.5947 11.5191 11.6796 11.437 11.7646C11.4233 11.7787 11.4233 11.7929 11.4097 11.7929C11.3413 11.8637 11.2729 11.9345 11.2045 12.0194C11.1772 12.0477 11.1362 12.0761 11.1088 12.1043C11.0404 12.1893 10.9584 12.2742 10.8763 12.3592C10.8626 12.3875 10.8353 12.4017 10.8216 12.43C10.7122 12.5433 10.6164 12.6565 10.507 12.7698C10.4933 12.784 10.4797 12.7981 10.466 12.8123C10.2471 13.053 10.0146 13.2936 9.76845 13.506C9.52226 13.7326 9.2624 13.9449 9.00254 14.129C8.729 14.3272 8.46914 14.4971 8.18192 14.667C7.90838 14.8227 7.62116 14.9643 7.32027 15.0918C7.03305 15.2192 6.73216 15.3325 6.43127 15.4316C5.85684 15.559 5.26873 15.7997 4.76268 15.8421C4.65326 15.8421 4.53017 15.8704 4.42076 15.8846C4.29766 15.9129 4.18825 15.9413 4.07883 15.9696C3.96942 16.012 3.86 16.0545 3.75058 16.097C3.64117 16.1395 3.53176 16.1961 3.42234 16.2527C3.3266 16.3235 3.21719 16.3802 3.12144 16.451C3.02571 16.5217 2.92997 16.6067 2.8479 16.6916C2.75217 16.7624 2.65643 16.8616 2.57436 16.9465C2.4923 17.0456 2.41024 17.1306 2.34186 17.2297C2.27347 17.3429 2.19141 17.442 2.1367 17.5553C2.06832 17.6544 1.99993 17.7677 1.94522 17.8809C1.89049 18.0084 1.83581 18.1216 1.79478 18.2491C1.75375 18.3623 1.71272 18.4898 1.67169 18.6172C1.64435 18.7305 1.61696 18.8437 1.6033 18.957C1.6033 18.9712 1.5896 18.9853 1.5896 18.9995C1.56227 19.1269 1.56227 19.2968 1.54857 19.3817C1.53487 19.4809 1.52124 19.5658 1.52124 19.6649C1.52124 19.7216 1.52124 19.7923 1.53494 19.849C1.54864 19.9481 1.56227 20.033 1.58967 20.118C1.617 20.2029 1.6444 20.2879 1.6854 20.3728V20.387C1.72643 20.472 1.78114 20.5569 1.83585 20.6419C1.89058 20.7268 1.94527 20.8118 2.01365 20.8967C2.08204 20.9675 2.1641 21.0524 2.24616 21.1232C2.32822 21.2082 2.41029 21.279 2.50602 21.3498C2.83427 21.6471 2.91633 21.7462 3.34032 21.9727C3.4087 22.0152 3.47709 22.0435 3.55915 22.086C3.57285 22.086 3.58649 22.1002 3.60018 22.1002C3.60018 22.1285 3.60018 22.1427 3.61388 22.171C3.62758 22.2843 3.65491 22.3975 3.68227 22.5108C3.7096 22.6382 3.75066 22.7515 3.79169 22.8506C3.83272 22.9355 3.86007 23.0205 3.9011 23.1054C3.9148 23.1337 3.92844 23.1621 3.94213 23.1762C3.99686 23.2895 4.05155 23.3886 4.10625 23.4877C4.17464 23.5868 4.24302 23.6859 4.31141 23.785C4.37979 23.87 4.46185 23.9691 4.54392 24.054C4.62598 24.139 4.70804 24.2098 4.80378 24.2947C4.80378 24.2947 4.81748 24.3089 4.83111 24.3089C4.91318 24.3797 4.99524 24.4505 5.0773 24.5071C5.17304 24.5779 5.26878 24.6346 5.37819 24.6912C5.47393 24.7479 5.58335 24.8045 5.69276 24.8469C5.77483 24.8894 5.87056 24.9177 5.9663 24.9461C5.98 24.9603 5.99363 24.9603 6.02103 24.9744C6.07576 24.9886 6.14412 25.0026 6.19883 25.0168C6.1578 25.7814 6.1441 26.5034 6.25356 26.7583C6.37665 27.0415 6.97844 26.1778 7.58022 25.1867C7.49816 26.1637 7.44345 27.3105 7.58022 27.6503C7.73067 28.0042 8.55129 26.8999 9.26249 25.6823C18.9595 23.3603 27.8085 30.2979 28.7385 40.0955C28.5607 38.5664 26.7416 37.7169 25.9074 37.9292C25.497 38.977 24.7995 40.322 23.678 41.1573C23.7738 40.2229 23.7327 39.2601 23.5412 38.3257C23.2404 39.6282 22.6522 40.8459 21.8453 41.8936C20.546 41.9927 19.2467 41.3414 18.5628 40.3645C18.5081 40.322 18.4944 40.237 18.4534 40.1804C18.4124 40.0813 18.3713 39.9822 18.344 39.8831C18.303 39.784 18.2756 39.6849 18.2619 39.5858C18.2482 39.4867 18.2482 39.3875 18.2482 39.2743C18.2482 39.2035 18.2482 39.1327 18.2482 39.0619C18.2619 38.9628 18.2893 38.8637 18.3166 38.7646C18.3439 38.6655 18.3713 38.5664 18.4124 38.4673C18.4671 38.3681 18.5081 38.269 18.5765 38.1699C18.809 37.4903 18.809 36.9382 18.385 36.6125C18.3029 36.5559 18.2209 36.5134 18.1251 36.4709C18.0704 36.4567 18.002 36.4284 17.9473 36.4143C17.9063 36.4001 17.879 36.386 17.8379 36.3718C17.7422 36.3435 17.6464 36.3151 17.5507 36.301C17.455 36.2727 17.3592 36.2585 17.2635 36.2585C17.1678 36.2443 17.0583 36.2302 16.9626 36.2302C16.8942 36.2302 16.8258 36.2444 16.7574 36.2444C16.648 36.2444 16.5523 36.2586 16.4565 36.2869C16.3608 36.3011 16.2651 36.3152 16.1693 36.3435C16.0736 36.3718 15.9779 36.4002 15.8821 36.4426C15.7864 36.4851 15.7043 36.5276 15.6086 36.5701C15.5265 36.6126 15.4445 36.6692 15.3487 36.7117C12.162 38.8637 14.0631 43.9041 16.2377 45.3624C15.4171 45.5181 14.5828 45.7022 14.3503 45.8863C14.3366 45.9004 14.323 45.9146 14.323 45.9146C14.9111 46.2827 15.5265 46.5942 16.1693 46.8632C17.0447 47.1605 17.9747 47.4295 18.385 47.5428V47.5569C19.5202 47.7976 20.6691 47.8826 21.8316 47.8118C27.8905 47.3729 32.8553 42.6015 33.7579 36.3152C33.7853 36.4426 33.8127 36.5559 33.84 36.6833C33.881 36.9382 33.9357 37.2072 33.9631 37.4762V37.4904C33.9904 37.6178 34.0041 37.7452 34.0178 37.8585V37.9152C34.0315 38.0426 34.0451 38.17 34.0451 38.2833C34.0588 38.439 34.0725 38.5948 34.0725 38.7505V38.977C34.0725 39.0478 34.0862 39.1328 34.0862 39.2036C34.0862 39.2885 34.0725 39.3735 34.0725 39.4584V39.6566C34.0725 39.7558 34.0588 39.8407 34.0588 39.9398C34.0588 39.9965 34.0588 40.0531 34.0451 40.1239C34.0451 40.223 34.0314 40.3221 34.0314 40.4354C34.0177 40.4778 34.0177 40.5203 34.0177 40.5628C34.004 40.6761 33.9903 40.7752 33.9766 40.8884C33.9766 40.9309 33.9766 40.9734 33.9629 41.0159C33.9492 41.1574 33.9219 41.2849 33.9082 41.4264V41.4406V41.4548C33.8809 41.5822 33.8535 41.7238 33.8261 41.8512V41.8937C33.7988 42.0211 33.7714 42.1486 33.7441 42.276C33.7441 42.2902 33.7304 42.3185 33.7304 42.3326C33.7031 42.4601 33.6757 42.5875 33.6347 42.7149V42.7574C33.5936 42.899 33.5526 43.0264 33.5252 43.1538C33.5115 43.168 33.5115 43.1821 33.5115 43.1821C33.4705 43.3237 33.4295 43.4653 33.3885 43.6069C33.3337 43.7485 33.2927 43.8759 33.238 44.0175C33.1833 44.1591 33.1423 44.3006 33.0876 44.4281C33.0328 44.5697 32.9781 44.6971 32.9234 44.8387H32.9097C32.855 44.9661 32.8003 45.1077 32.7319 45.2351C32.7182 45.2776 32.7046 45.3059 32.6909 45.3342C32.6772 45.3484 32.6772 45.3625 32.6636 45.3767C31.7746 47.2314 30.4616 48.8596 28.8203 50.1339C28.7109 50.2047 28.6015 50.2896 28.4921 50.3746C28.4647 50.4029 28.4237 50.417 28.3963 50.4454C28.3006 50.5161 28.2049 50.5869 28.0955 50.6577L28.1365 50.7427H28.1502C28.3416 50.7144 28.5331 50.686 28.7246 50.6577H28.7383C29.0939 50.6011 29.4495 50.5303 29.8051 50.4595C29.9008 50.4453 30.0103 50.417 30.106 50.3887C30.1744 50.3745 30.2291 50.3604 30.2975 50.3462C30.3932 50.3321 30.489 50.3038 30.5847 50.2896C30.6668 50.2613 30.7488 50.2471 30.8309 50.2188C32.1986 49.879 33.5252 49.4118 34.7972 48.8596C32.6226 51.932 29.7094 54.4097 26.3038 56.0379C27.8767 55.9246 29.4495 55.6556 30.9676 55.2025C36.4795 53.5177 41.116 49.6808 43.8924 44.513C43.3316 47.7836 42.0733 50.8984 40.2133 53.6168C41.5399 52.7107 42.7572 51.6629 43.865 50.4736C46.9287 47.1606 48.9392 42.9556 49.623 38.4391C50.088 40.6761 50.2248 42.9839 50.0197 45.2634C59.8944 31.0059 50.8403 16.2246 47.0518 12.3311C47.038 12.3028 47.0244 12.2886 47.0244 12.2603C47.0107 12.2745 47.0107 12.2745 47.0107 12.2886C47.0107 12.2744 47.0107 12.2744 46.997 12.2603C46.997 12.4302 46.9833 12.6001 46.9697 12.77C46.9286 13.0956 46.8876 13.4071 46.8329 13.7186C46.7645 14.0301 46.6825 14.3415 46.6004 14.653C46.5047 14.9504 46.3953 15.2618 46.2722 15.5592C46.1491 15.8423 46.0123 16.1397 45.8618 16.4228C45.7114 16.6918 45.5473 16.975 45.3695 17.2299C45.1917 17.4989 45.0002 17.7537 44.8087 17.9944C44.6036 18.2493 44.3847 18.4758 44.1659 18.7023C44.0291 18.8297 43.906 18.943 43.7693 19.0563C43.6599 19.1554 43.5641 19.2403 43.4547 19.3394C43.2085 19.5377 42.9623 19.7217 42.6888 19.8916C42.4289 20.0615 42.1554 20.2314 41.8819 20.373C41.5946 20.5146 41.3074 20.642 41.0202 20.7694C40.733 20.8827 40.4321 20.9818 40.1312 21.0668C39.8303 21.1517 39.5157 21.2225 39.2148 21.2791C38.9003 21.3358 38.5857 21.3641 38.2848 21.3924C38.066 21.4066 37.8471 21.4207 37.6283 21.4207C37.3137 21.4207 36.9992 21.3924 36.6983 21.364C36.3837 21.3358 36.0691 21.2933 35.7682 21.2225C35.4537 21.1658 35.1528 21.0809 34.8519 20.9818H34.8382C35.1391 20.9535 35.44 20.9251 35.7409 20.8685C36.0554 20.8118 36.3563 20.7411 36.6572 20.6561C36.9581 20.5712 37.259 20.4721 37.5462 20.3588C37.8471 20.2455 38.1343 20.104 38.4079 19.9624C38.6951 19.8208 38.955 19.665 39.2285 19.4951C39.4884 19.3111 39.7482 19.127 39.9944 18.9288C40.2406 18.7306 40.4731 18.5182 40.6919 18.2917C40.9244 18.0793 41.1296 17.8386 41.3348 17.5979C41.5399 17.3431 41.7314 17.0882 41.9092 16.8334C41.9365 16.7909 41.9639 16.7343 41.9913 16.6918C42.128 16.4653 42.2648 16.2387 42.3879 16.0122C42.5383 15.729 42.6751 15.4459 42.7982 15.1485C42.9213 14.8512 43.0307 14.5539 43.1264 14.2424C43.2222 13.9451 43.2906 13.6336 43.3589 13.3221C43.4137 12.9965 43.4684 12.685 43.4957 12.3735C43.523 12.0479 43.5504 11.7222 43.5504 11.4107C43.5504 11.1842 43.5367 10.9577 43.5231 10.7311C43.4958 10.4055 43.4547 10.094 43.4137 9.78252C43.359 9.45688 43.2906 9.1454 43.2085 8.83391C43.1128 8.53659 43.0171 8.2251 42.9076 7.92778C42.7982 7.63045 42.6615 7.33313 42.5247 7.04996C42.3742 6.76679 42.2238 6.48362 42.0597 6.21462C41.8819 5.94561 41.7041 5.69076 41.5126 5.43591C41.3074 5.19521 41.1023 4.95452 40.8835 4.71383C40.774 4.60057 40.6509 4.47314 40.5279 4.35988C39.9124 3.86433 39.2696 3.3971 38.6268 2.97236C38.531 2.9157 38.449 2.87325 38.3532 2.83077C37.9019 2.53345 37.4779 2.37762 37.0539 2.23604Z" fill="black"></path>
</g>
<defs>
<clipPath id="clip0_9_144">
<rect width="56" height="56" fill="white" transform="translate(0.25 0.5)"></rect>
</clipPath>
</defs>
</svg>
