<svg width="56" height="57" viewBox="0 0 56 57" fill="none" xmlns="http://www.w3.org/2000/svg">
<g clip-path="url(#clip0_9_171)">
<path fill-rule="evenodd" clip-rule="evenodd" d="M32.4546 1.42896C32.0717 1.42896 31.7161 1.51391 31.3878 1.62717C32.0853 2.10855 32.4683 2.74568 32.6598 3.46776C32.6735 3.56687 32.7008 3.63766 32.7145 3.73676C32.7282 3.82172 32.7418 3.90667 32.7418 3.99162C32.7966 5.23755 32.4273 5.39329 32.1674 6.12953C31.7708 7.07814 31.8802 8.09754 32.3589 8.91873C32.3999 9.01783 32.4546 9.1311 32.523 9.23021C32.0033 5.64814 34.8891 5.11013 35.4225 3.99162C35.4636 3.01469 34.684 2.36341 34.0685 1.91034C33.4804 1.54222 32.947 1.42896 32.4546 1.42896ZM36.8039 2.23598C36.7492 2.56162 36.7902 2.47667 36.7766 2.64657C36.7629 2.75984 36.7629 2.90143 36.7492 3.01469C36.7219 3.12796 36.6945 3.24122 36.6535 3.35449C36.6262 3.46776 36.5851 3.58103 36.5441 3.69429C36.4893 3.80756 36.4483 3.90667 36.3936 4.01993C36.3526 4.07659 36.3253 4.1332 36.2842 4.18983C36.2569 4.23231 36.2295 4.27478 36.2022 4.31726C36.1338 4.41637 36.0654 4.51548 35.997 4.60042C35.9149 4.68538 35.8466 4.78448 35.7508 4.85528V4.86945C35.6688 4.94025 35.5867 5.0252 35.491 5.09599C35.2037 5.32252 34.8755 5.49242 34.5746 5.7048C34.4789 5.77559 34.3831 5.83222 34.3011 5.91717C34.2053 5.98796 34.1233 6.05875 34.0412 6.1437C33.9455 6.22865 33.8771 6.31361 33.795 6.41272C33.7266 6.49767 33.6446 6.59677 33.5899 6.69588C33.5215 6.79499 33.4531 6.8941 33.3984 6.99321C33.3437 7.10647 33.3026 7.20558 33.2479 7.31885C33.2069 7.43211 33.1659 7.53122 33.1385 7.64449C33.0975 7.77191 33.0701 7.88518 33.0428 7.99845C33.0291 8.05511 33.0291 8.12587 33.0154 8.18251C33.0017 8.23916 33.0017 8.29577 32.9881 8.35241C32.9881 8.46567 32.9744 8.5931 32.9744 8.70636C32.9744 8.79132 32.9744 8.87627 32.9881 8.96122C32.9881 9.07448 33.0018 9.18775 33.0291 9.31517C33.0428 9.42844 33.0702 9.54171 33.0975 9.65498C33.1386 9.76824 33.1659 9.88151 33.2069 9.99477C33.2343 10.0656 33.2753 10.1364 33.3027 10.193L30.157 8.9329C29.6236 8.77716 29.1039 8.63558 28.5705 8.50815C28.2832 8.43736 27.996 8.36657 27.7088 8.29577C26.8882 8.12587 26.0539 7.99845 25.2196 7.9135C25.1923 7.9135 25.1786 7.89932 25.1512 7.89932C24.3306 7.81437 23.5237 7.7719 22.703 7.7719C22.1013 7.7719 21.4995 7.80019 20.9114 7.84269C20.0771 7.89935 19.2428 8.01259 18.4085 8.15417C18.2033 8.18247 17.9982 8.22497 17.793 8.26744C17.369 8.35239 16.9587 8.4515 16.5621 8.55061C16.3569 8.60726 16.1518 8.66388 15.9466 8.72051C15.7415 8.80545 15.55 8.90457 15.3585 8.98952C15.2081 9.06031 15.0576 9.1311 14.9072 9.20189C14.8798 9.21607 14.8524 9.21607 14.8388 9.23019C14.702 9.30098 14.5789 9.35761 14.4558 9.4284C14.4148 9.44258 14.3874 9.4567 14.3601 9.47088C14.2096 9.54167 14.0592 9.62662 13.9361 9.69741C13.8404 9.73989 13.7446 9.79652 13.6626 9.839C13.6215 9.86729 13.5668 9.89565 13.5395 9.90979C13.4164 9.98058 13.2933 10.0514 13.1839 10.1222C13.0608 10.193 12.9514 10.2637 12.8556 10.3345C12.7599 10.4053 12.6641 10.462 12.5821 10.5327C12.5684 10.5469 12.5547 10.5469 12.541 10.561C12.459 10.6177 12.3633 10.6885 12.2812 10.7593C12.2812 10.7593 12.2675 10.7734 12.2539 10.7876C12.1855 10.8442 12.1171 10.9008 12.0487 10.9575C12.0214 10.9716 11.994 10.9999 11.9666 11.0141C11.8983 11.0708 11.8299 11.1415 11.7615 11.1982C11.7478 11.2265 11.7205 11.2407 11.7068 11.2548C11.6247 11.3398 11.5426 11.4106 11.4606 11.4955C11.4469 11.4955 11.4469 11.5097 11.4332 11.5238C11.3512 11.5946 11.2691 11.6796 11.1871 11.7645C11.1734 11.7787 11.1734 11.7928 11.1597 11.7928C11.0913 11.8636 11.023 11.9344 10.9546 12.0193C10.9272 12.0476 10.8862 12.076 10.8588 12.1043C10.7904 12.1892 10.7084 12.2742 10.6263 12.3591C10.6126 12.3874 10.5853 12.4016 10.5716 12.4299C10.4622 12.5432 10.3664 12.6565 10.257 12.7697C10.2433 12.7839 10.2297 12.798 10.216 12.8122C9.99716 13.0529 9.76465 13.2936 9.51847 13.506C9.27228 13.7325 9.01242 13.9449 8.75255 14.1289C8.47901 14.3272 8.21915 14.497 7.93194 14.6669C7.6584 14.8227 7.37118 14.9643 7.07029 15.0917C6.78307 15.2191 6.48218 15.3324 6.18129 15.4315C5.60685 15.5589 5.01874 15.7996 4.51269 15.8421C4.40328 15.8421 4.28019 15.8704 4.17077 15.8846C4.04768 15.9129 3.93826 15.9412 3.82885 15.9695C3.71943 16.012 3.61001 16.0545 3.5006 16.0969C3.39119 16.1394 3.28177 16.196 3.17236 16.2527C3.07661 16.3235 2.9672 16.3801 2.87146 16.4509C2.77572 16.5217 2.67998 16.6066 2.59792 16.6916C2.50218 16.7624 2.40644 16.8615 2.32438 16.9464C2.24232 17.0456 2.16026 17.1305 2.09187 17.2296C2.02349 17.3429 1.94143 17.442 1.88672 17.5553C1.81833 17.6544 1.74995 17.7676 1.69524 17.8809C1.64051 18.0083 1.58583 18.1216 1.54479 18.249C1.50376 18.3623 1.46273 18.4897 1.4217 18.6171C1.39437 18.7304 1.36697 18.8437 1.35332 18.9569C1.35332 18.9711 1.33962 18.9852 1.33962 18.9994C1.31229 19.1268 1.31229 19.2967 1.29859 19.3817C1.28489 19.4808 1.27126 19.5657 1.27126 19.6648C1.27126 19.7215 1.27126 19.7923 1.28495 19.8489C1.29865 19.948 1.31229 20.033 1.33968 20.1179C1.36702 20.2029 1.39441 20.2878 1.43542 20.3728V20.3869C1.47645 20.4719 1.53116 20.5568 1.58586 20.6418C1.64059 20.7267 1.69528 20.8117 1.76367 20.8967C1.83205 20.9674 1.91411 21.0524 1.99618 21.1232C2.07824 21.2081 2.1603 21.2789 2.25604 21.3497C2.58429 21.647 2.66635 21.7461 3.09033 21.9727C3.15872 22.0152 3.22711 22.0435 3.30917 22.0859C3.32287 22.0859 3.3365 22.1001 3.3502 22.1001C3.3502 22.1284 3.3502 22.1426 3.3639 22.1709C3.3776 22.2842 3.40493 22.3974 3.43228 22.5107C3.45961 22.6381 3.50067 22.7514 3.5417 22.8505C3.58273 22.9355 3.61009 23.0204 3.65112 23.1054C3.66482 23.1337 3.67845 23.162 3.69215 23.1762C3.74688 23.2894 3.80156 23.3885 3.85627 23.4876C3.92466 23.5868 3.99304 23.6859 4.06142 23.785C4.12981 23.8699 4.21187 23.969 4.29393 24.054C4.37599 24.1389 4.45806 24.2097 4.5538 24.2947C4.5538 24.2947 4.5675 24.3089 4.58113 24.3089C4.66319 24.3797 4.74525 24.4505 4.82732 24.5071C4.92305 24.5779 5.01879 24.6345 5.12821 24.6911C5.22395 24.7478 5.33336 24.8044 5.44278 24.8469C5.52484 24.8894 5.62058 24.9177 5.71632 24.946C5.73002 24.9602 5.74365 24.9602 5.77105 24.9743C5.82578 24.9885 5.89413 25.0026 5.94884 25.0168C5.90781 25.7813 5.89411 26.5034 6.00357 26.7582C6.12666 27.0414 6.72845 26.1777 7.33024 25.1867C7.24818 26.1636 7.19347 27.3104 7.33024 27.6502C7.48068 28.0042 8.3013 26.8998 9.01251 25.6822C18.7095 23.3602 27.5585 30.2978 28.4885 40.0954C28.3107 38.5663 26.4917 37.7168 25.6574 37.9292C25.2471 38.9769 24.5495 40.3219 23.428 41.1573C23.5238 40.2228 23.4828 39.2601 23.2913 38.3256C22.9904 39.6282 22.4023 40.8458 21.5953 41.8935C20.296 41.9926 18.9967 41.3413 18.3128 40.3644C18.2581 40.3219 18.2445 40.237 18.2034 40.1804C18.1624 40.0812 18.1214 39.9821 18.094 39.883C18.053 39.7839 18.0256 39.6848 18.0119 39.5857C17.9982 39.4866 17.9982 39.3875 17.9982 39.2742C17.9982 39.2034 17.9982 39.1326 17.9982 39.0618C18.0119 38.9627 18.0393 38.8636 18.0666 38.7645C18.094 38.6654 18.1214 38.5663 18.1624 38.4672C18.2171 38.3681 18.2581 38.269 18.3265 38.1699C18.559 37.4903 18.559 36.9381 18.135 36.6124C18.053 36.5558 17.9709 36.5133 17.8751 36.4709C17.8204 36.4567 17.7521 36.4284 17.6974 36.4142C17.6563 36.4 17.629 36.3859 17.5879 36.3717C17.4922 36.3434 17.3965 36.3151 17.3007 36.3009C17.205 36.2726 17.1092 36.2585 17.0135 36.2585C16.9178 36.2443 16.8083 36.2302 16.7126 36.2302C16.6442 36.2302 16.5758 36.2443 16.5075 36.2443C16.398 36.2443 16.3023 36.2585 16.2066 36.2868C16.1108 36.301 16.0151 36.3151 15.9193 36.3435C15.8236 36.3718 15.7279 36.4001 15.6321 36.4426C15.5364 36.4851 15.4543 36.5275 15.3586 36.57C15.2765 36.6125 15.1945 36.6691 15.0987 36.7116C11.912 38.8637 13.8131 43.904 15.9877 45.3623C15.1671 45.5181 14.3328 45.7022 14.1003 45.8862C14.0866 45.9004 14.073 45.9145 14.073 45.9145C14.6611 46.2826 15.2766 46.5941 15.9194 46.8631C16.7947 47.1604 17.7247 47.4294 18.135 47.5427V47.5569C19.2702 47.7976 20.4191 47.8825 21.5816 47.8117C27.6405 47.3728 32.6053 42.6015 33.5079 36.3152C33.5353 36.4426 33.5627 36.5558 33.59 36.6833C33.631 36.9381 33.6857 37.2071 33.7131 37.4761V37.4903C33.7404 37.6178 33.7541 37.7452 33.7678 37.8585V37.9151C33.7815 38.0425 33.7952 38.17 33.7952 38.2832C33.8089 38.439 33.8225 38.5947 33.8225 38.7505V38.977C33.8225 39.0478 33.8362 39.1327 33.8362 39.2035C33.8362 39.2885 33.8225 39.3734 33.8225 39.4584V39.6566C33.8225 39.7557 33.8088 39.8406 33.8088 39.9398C33.8088 39.9964 33.8088 40.053 33.7951 40.1238C33.7951 40.2229 33.7814 40.322 33.7814 40.4353C33.7677 40.4778 33.7677 40.5202 33.7677 40.5627C33.754 40.676 33.7403 40.7751 33.7266 40.8884C33.7266 40.9308 33.7266 40.9733 33.7129 41.0158C33.6992 41.1574 33.6719 41.2848 33.6582 41.4264V41.4406V41.4548C33.6309 41.5822 33.6035 41.7238 33.5762 41.8512V41.8937C33.5488 42.0211 33.5214 42.1485 33.4941 42.2759C33.4941 42.2901 33.4804 42.3184 33.4804 42.3326C33.4531 42.46 33.4257 42.5874 33.3847 42.7149V42.7573C33.3436 42.8989 33.3026 43.0263 33.2752 43.1538C33.2616 43.1679 33.2616 43.1821 33.2616 43.1821C33.2205 43.3237 33.1795 43.4652 33.1385 43.6068C33.0837 43.7484 33.0427 43.8758 32.988 44.0174C32.9333 44.159 32.8923 44.3006 32.8376 44.428C32.7828 44.5696 32.7282 44.697 32.6735 44.8386H32.6597C32.605 44.966 32.5503 45.1076 32.4819 45.235C32.4682 45.2775 32.4546 45.3058 32.4409 45.3341C32.4272 45.3483 32.4272 45.3624 32.4136 45.3766C31.5246 47.2314 30.2116 48.8596 28.5703 50.1338C28.4609 50.2046 28.3515 50.2896 28.2421 50.3745C28.2148 50.4028 28.1737 50.417 28.1464 50.4453C28.0506 50.5161 27.9549 50.5869 27.8455 50.6577L27.8865 50.7426H27.9002C28.0917 50.7143 28.2831 50.686 28.4746 50.6577H28.4883C28.8439 50.601 29.1995 50.5302 29.5551 50.4595C29.6509 50.4453 29.7603 50.417 29.856 50.3887C29.9244 50.3745 29.9791 50.3604 30.0475 50.3462C30.1432 50.332 30.239 50.3037 30.3347 50.2895C30.4168 50.2612 30.4988 50.2471 30.5809 50.2187C31.9486 49.8789 33.2753 49.4117 34.5472 48.8595C32.3726 51.9319 29.4594 54.4096 26.0538 56.0378C27.6267 55.9246 29.1995 55.6555 30.7177 55.2025C36.2295 53.5176 40.866 49.6807 43.6424 44.5129C43.0816 47.7835 41.8234 50.8983 39.9633 53.6167C41.29 52.7106 42.5072 51.6629 43.615 50.4736C46.6787 47.1605 48.6892 42.9555 49.373 38.439C49.8381 40.676 49.9748 42.9838 49.7697 45.2633C59.6444 31.0059 50.5903 16.2246 46.8018 12.331C46.7881 12.3027 46.7744 12.2885 46.7744 12.2602C46.7607 12.2744 46.7607 12.2744 46.7607 12.2885C46.7607 12.2743 46.7607 12.2743 46.747 12.2602C46.747 12.4301 46.7333 12.6 46.7197 12.7699C46.6787 13.0956 46.6376 13.407 46.5829 13.7185C46.5145 14.03 46.4325 14.3415 46.3504 14.653C46.2547 14.9503 46.1453 15.2618 46.0222 15.5591C45.8991 15.8423 45.7623 16.1396 45.6119 16.4228C45.4614 16.6918 45.2973 16.9749 45.1195 17.2298C44.9417 17.4988 44.7502 17.7537 44.5587 17.9943C44.3536 18.2492 44.1348 18.4757 43.9159 18.7023C43.7791 18.8297 43.6561 18.943 43.5193 19.0562C43.4099 19.1553 43.3141 19.2403 43.2047 19.3394C42.9585 19.5376 42.7123 19.7217 42.4388 19.8916C42.1789 20.0615 41.9054 20.2314 41.6319 20.3729C41.3447 20.5145 41.0574 20.642 40.7702 20.7694C40.483 20.8826 40.1821 20.9818 39.8812 21.0667C39.5803 21.1517 39.2658 21.2224 38.9649 21.2791C38.6503 21.3357 38.3357 21.364 38.0348 21.3923C37.816 21.4065 37.5972 21.4206 37.3783 21.4206C37.0638 21.4206 36.7492 21.3923 36.4483 21.364C36.1337 21.3357 35.8192 21.2932 35.5183 21.2224C35.2037 21.1657 34.9028 21.0808 34.6019 20.9817H34.5882C34.8891 20.9534 35.19 20.9251 35.4909 20.8684C35.8055 20.8118 36.1063 20.741 36.4072 20.6561C36.7081 20.5711 37.009 20.472 37.2963 20.3587C37.5971 20.2455 37.8844 20.1039 38.1579 19.9623C38.4451 19.8207 38.705 19.665 38.9785 19.4951C39.2384 19.311 39.4982 19.127 39.7444 18.9287C39.9906 18.7305 40.2231 18.5182 40.442 18.2916C40.6745 18.0792 40.8796 17.8386 41.0848 17.5979C41.2899 17.343 41.4814 17.0882 41.6592 16.8333C41.6865 16.7908 41.7139 16.7342 41.7413 16.6917C41.878 16.4652 42.0148 16.2387 42.1379 16.0121C42.2883 15.729 42.4251 15.4458 42.5482 15.1485C42.6713 14.8511 42.7807 14.5538 42.8765 14.2423C42.9722 13.945 43.0406 13.6335 43.109 13.322C43.1637 12.9964 43.2184 12.6849 43.2457 12.3734C43.2731 12.0478 43.3005 11.7221 43.3005 11.4107C43.3005 11.1841 43.2867 10.9576 43.2731 10.7311C43.2458 10.4054 43.2047 10.0939 43.1637 9.78246C43.109 9.45682 43.0406 9.14534 42.9586 8.83385C42.8628 8.53653 42.7671 8.22504 42.6577 7.92772C42.5482 7.63039 42.4115 7.33306 42.2747 7.04989C42.1243 6.76673 41.9738 6.48356 41.8097 6.21456C41.6319 5.94555 41.4541 5.6907 41.2626 5.43584C41.0575 5.19515 40.8523 4.95446 40.6335 4.71377C40.5241 4.60051 40.401 4.47308 40.2779 4.35982C39.6624 3.86427 39.0196 3.39704 38.3768 2.97229C38.281 2.91564 38.199 2.87318 38.1032 2.83071C37.6519 2.53339 37.2279 2.37756 36.8039 2.23598Z" fill="black"/>
</g>
<defs>
<clipPath id="clip0_9_171">
<rect width="56" height="56" fill="white" transform="translate(0 0.5)"/>
</clipPath>
</defs>
</svg>
