<svg width="57" height="56" viewBox="0 0 57 56" fill="none" xmlns="http://www.w3.org/2000/svg">
<path d="M47.0115 30.282C45.2172 30.2913 43.6632 30.7218 42.3612 31.3646C41.8852 30.4138 41.4022 29.5773 41.3217 28.9555C41.2272 28.2298 41.1175 27.7958 41.2318 26.9313C41.3462 26.0668 41.8467 24.8418 41.8397 24.7496C41.8327 24.6575 41.7277 24.2176 40.6928 24.2095C39.658 24.2025 38.7725 24.409 38.6687 24.682C38.5648 24.955 38.3653 25.5698 38.2417 26.2115C38.0608 27.1495 36.1755 30.4966 35.1057 32.2466C34.7557 31.563 34.4582 30.961 34.3963 30.485C34.3018 29.7593 34.1922 29.3253 34.3065 28.4608C34.4208 27.5963 34.9213 26.3713 34.9143 26.2791C34.9073 26.187 34.8023 25.7471 33.7675 25.739C32.7327 25.732 31.8472 25.9385 31.7433 26.2115C31.6395 26.4845 31.5275 27.1226 31.3163 27.741C31.104 28.3581 28.5992 33.9406 27.9423 35.3885C27.6075 36.1258 27.317 36.7185 27.1117 37.1221L27.1105 37.1198C27.1105 37.1198 27.0977 37.1466 27.0767 37.1921C26.9005 37.5363 26.7967 37.7265 26.7967 37.7265C26.7967 37.7265 26.7978 37.7288 26.8002 37.7335C26.6602 37.9866 26.5108 38.2211 26.4373 38.2211C26.386 38.2211 26.2822 37.548 26.4595 36.624C26.8328 34.6873 27.7277 31.668 27.7195 31.563C27.7148 31.5093 27.8863 30.9831 27.135 30.7078C26.4047 30.4406 26.1445 30.8863 26.078 30.8875C26.0138 30.8886 25.966 31.045 25.966 31.045C25.966 31.045 26.7792 27.6488 24.4143 27.6488C22.935 27.6488 20.8863 29.267 19.8772 30.7335C19.2402 31.0811 17.8763 31.8255 16.4308 32.62C15.8755 32.9256 15.3085 33.2371 14.7707 33.5335C14.7345 33.4926 14.6972 33.453 14.6598 33.4121C11.791 30.352 6.48968 28.1878 6.71368 24.073C6.79534 22.5773 7.31568 18.6386 16.9022 13.8623C24.755 9.94931 31.0422 11.0261 32.1283 13.412C33.68 16.8221 28.7683 23.1583 20.6133 24.073C17.5065 24.4218 15.8697 23.2166 15.4625 22.7686C15.0343 22.2961 14.9702 22.2751 14.8103 22.3638C14.5502 22.5085 14.7147 22.925 14.8103 23.1735C15.0542 23.807 16.0528 24.9305 17.7562 25.4905C19.2553 25.9828 22.9035 26.2523 27.3147 24.5455C32.2567 22.6345 36.1148 17.3168 34.9808 12.873C33.8282 8.35331 26.3335 6.86698 19.2402 9.38698C15.0133 10.8873 10.4435 13.2416 7.15701 16.3146C3.24984 19.9686 2.62684 23.1501 2.88351 24.479C3.79584 29.2016 10.3047 32.277 12.911 34.5555C12.7827 34.6266 12.6613 34.6931 12.5517 34.7538C11.245 35.4001 6.28318 37.9971 5.04184 40.74C3.63368 43.8515 5.26584 46.0845 6.34618 46.3855C9.69334 47.3165 13.128 45.6411 14.9748 42.8878C16.8205 40.1356 16.5953 36.5505 15.7483 34.9148C15.7378 34.895 15.7262 34.8751 15.7157 34.8541C16.0528 34.6546 16.397 34.4516 16.7377 34.251C17.4027 33.8601 18.056 33.4961 18.6218 33.1881C18.3045 34.0561 18.0723 35.098 17.9522 36.6018C17.8098 38.3681 18.5343 40.6513 19.4817 41.5496C19.8993 41.9451 20.401 41.9545 20.7183 41.9545C21.8208 41.9545 22.3237 41.0375 22.8778 39.9525C23.5568 38.6225 24.16 37.0731 24.16 37.0731C24.16 37.0731 23.404 41.2568 25.4643 41.2568C26.2157 41.2568 26.9705 40.2826 27.3077 39.7868C27.3088 39.7926 27.3088 39.795 27.3088 39.795C27.3088 39.795 27.3287 39.7623 27.3672 39.6981C27.4453 39.5791 27.4897 39.5033 27.4897 39.5033C27.4897 39.5033 27.4908 39.4951 27.4932 39.4811C27.7953 38.9573 28.465 37.7626 29.4683 35.7921C30.7657 33.2465 32.0093 30.0568 32.0093 30.0568C32.0093 30.0568 32.1248 30.8361 32.504 32.1265C32.7268 32.8848 33.2005 33.7236 33.575 34.5286C33.274 34.9463 33.0897 35.1855 33.0897 35.1855C33.0897 35.1855 33.0908 35.1901 33.0943 35.1983C32.854 35.518 32.5845 35.8621 32.3022 36.1981C31.2778 37.4173 30.0587 38.8103 29.8953 39.2116C29.7028 39.6853 29.7483 40.033 30.1205 40.3141C30.3923 40.5183 30.8753 40.551 31.3805 40.5171C32.301 40.4553 32.9473 40.2266 33.267 40.0878C33.7652 39.9116 34.345 39.6351 34.8887 39.235C35.8932 38.4965 36.4987 37.4406 36.4403 36.0406C36.4077 35.2695 36.1627 34.5053 35.8512 33.7843C35.9422 33.6536 36.0332 33.5206 36.1253 33.3876C37.7085 31.073 38.937 28.5296 38.937 28.5296C38.937 28.5296 39.0525 29.309 39.4317 30.5993C39.623 31.2515 40.0022 31.9643 40.3428 32.662C38.8542 33.8718 37.9313 35.2776 37.6105 36.1993C37.0178 37.905 37.4822 38.6773 38.3525 38.8535C38.7468 38.9328 39.3045 38.752 39.7233 38.5746C40.2448 38.402 40.8713 38.1138 41.457 37.6833C42.4615 36.9448 43.4275 35.9111 43.3692 34.5123C43.3423 33.8753 43.1697 33.243 42.9352 32.6363C44.1975 32.1101 45.8308 31.8185 47.9122 32.0611C52.377 32.5826 53.252 35.3698 53.0852 36.5365C52.9172 37.7031 51.9815 38.3448 51.6677 38.5385C51.355 38.7321 51.2593 38.7998 51.285 38.9433C51.3235 39.1521 51.4682 39.1451 51.7353 39.0996C52.1028 39.0378 54.0792 38.1511 54.1643 35.9975C54.2705 33.2605 51.6513 30.2575 47.0115 30.282ZM12.5983 41.8833C11.119 43.4968 9.05401 44.1058 8.16734 43.5925C7.21068 43.0383 7.58984 40.663 9.40401 38.9503C10.51 37.9073 11.938 36.946 12.8853 36.3545C13.1012 36.225 13.4173 36.0348 13.8023 35.8038C13.8665 35.7676 13.9027 35.7478 13.9027 35.7478L13.9015 35.7455C13.9762 35.7011 14.052 35.6556 14.1302 35.6078C14.7917 38.045 14.1512 40.1905 12.5983 41.8833ZM23.3725 34.5601C22.858 35.8155 21.78 39.0285 21.1232 38.8558C20.5597 38.7076 20.2167 36.2658 21.0112 33.8625C21.4102 32.6526 22.2642 31.2071 22.7658 30.646C23.5732 29.743 24.4622 29.4478 24.678 29.8141C24.9522 30.2808 23.6957 33.7726 23.3725 34.5601ZM32.273 38.8068C32.0548 38.9211 31.8542 38.9923 31.762 38.9375C31.6932 38.8966 31.8518 38.7461 31.8518 38.7461C31.8518 38.7461 32.9648 37.548 33.4035 37.0031C33.659 36.6858 33.9542 36.309 34.2762 35.889C34.2785 35.931 34.2797 35.973 34.2797 36.0138C34.2773 37.4488 32.8913 38.4171 32.273 38.8068ZM39.1295 37.2435C38.9662 37.128 38.9942 36.7535 39.5297 35.5856C39.7397 35.1271 40.2203 34.356 41.0533 33.6186C41.1502 33.922 41.2085 34.2125 41.2073 34.4831C41.1968 36.2891 39.9088 36.9635 39.1295 37.2435Z" fill="black"/>
</svg>
